<svg xmlns="http://www.w3.org/2000/svg" width="235.405" height="197.673" viewBox="0 0 235.405 197.673"><g transform="translate(-3.302 -30.272)"><path d="M231.955,197.012a15.639,15.639,0,0,1,3.66,16.324,15.481,15.481,0,0,1-.7,1.641,15.651,15.651,0,0,1-9.946,8.163,14.935,14.935,0,0,1-1.9.387,15.759,15.759,0,0,1-2.149.147H25.382a15.555,15.555,0,0,1-9.961-3.6,14.523,14.523,0,0,1-1.077-.979c-.192-.192-.382-.389-.564-.593-.237-.259-.458-.524-.671-.8a15.366,15.366,0,0,1-1.724-2.73c-.064-.128-.126-.256-.185-.387q-.285-.616-.512-1.254a15.591,15.591,0,0,1,2.4-14.927c.214-.275.439-.541.671-.8a15.573,15.573,0,0,1,11.609-5.173H45.735q.384,0,.761-.028a10.041,10.041,0,0,0,1.909-.323,9.76,9.76,0,0,0,1.589-.574,10.325,10.325,0,0,0,2.993-2.079A10.218,10.218,0,0,0,56,182.187a9.9,9.9,0,0,0-.066-1.162,10.267,10.267,0,0,0-7.52-8.744,10.122,10.122,0,0,0-1.909-.322q-.377-.028-.761-.029h-3.2a23.669,23.669,0,0,1-5.291-.593H37.24l-.121-.028c-.133-.029-.263-.062-.394-.1l-.194-.05c-.171-.045-.341-.09-.51-.14s-.285-.083-.425-.128a23.091,23.091,0,0,1-3.111-1.2c-.223-.1-.446-.211-.664-.324-.36-.183-.711-.373-1.062-.574a21.56,21.56,0,0,1-1.9-1.219q-.768-.544-1.489-1.148-.825-.686-1.584-1.447a23.625,23.625,0,0,1-6.925-15.479c-.01-.176-.017-.351-.021-.527,0-.258-.014-.519-.014-.778v-.339a23.94,23.94,0,0,1,.209-2.846,23.673,23.673,0,0,1,9.809-16.179q.873-.621,1.8-1.16c.036-.021.071-.042.109-.061a23.409,23.409,0,0,1,3.32-1.58c.5-.192,1-.365,1.515-.524s1.089-.311,1.644-.436a23.7,23.7,0,0,1,5.308-.6H60.01a10.482,10.482,0,0,0,6.052-1.928,10.624,10.624,0,0,0,1.342-1.136,10.435,10.435,0,0,0,3.045-6.785c.012-.2.019-.406.019-.612a10.466,10.466,0,0,0-3.92-8.163c-.159-.128-.32-.237-.486-.365a10.133,10.133,0,0,0-1.909-1.075q-.246-.109-.5-.2a10.38,10.38,0,0,0-3.645-.655H28.1a24.754,24.754,0,0,1-8.64-1.532,24.063,24.063,0,0,1-2.846-1.269q-.612-.32-1.2-.671-.842-.5-1.641-1.067c-.237-.161-.451-.325-.671-.493a23.788,23.788,0,0,1-1.9-1.61c-.213-.2-.422-.4-.628-.6A24.745,24.745,0,0,1,3.864,84.034q-.043-.187-.078-.377c-.085-.417-.159-.837-.221-1.264A25.059,25.059,0,0,1,3.3,78.764V78.48A24.689,24.689,0,0,1,8.947,63.01c.223-.27.453-.538.688-.8.3-.337.609-.664.927-.982.206-.206.415-.408.628-.6l.062-.057c.178-.166.356-.327.538-.486q.636-.557,1.309-1.067c.221-.168.443-.332.671-.493s.413-.287.621-.427c.334-.223.674-.439,1.02-.643l.168-.1c.339-.2.685-.391,1.034-.572a23.676,23.676,0,0,1,2.846-1.266,24.665,24.665,0,0,1,8.64-1.549,7.107,7.107,0,0,0,.749-.04,6.768,6.768,0,0,0,1.9-.491,6.918,6.918,0,0,0,3.69-3.612,6.837,6.837,0,0,0,.536-2.018,5.983,5.983,0,0,0,.038-.657V42.118a11.815,11.815,0,0,1,.489-3.375c.031-.1.062-.2.095-.3a11.832,11.832,0,0,1,10.2-8.12q.356-.032.711-.043h69.842a7.748,7.748,0,0,1,.78.026,11.5,11.5,0,0,1,1.909.28,11.826,11.826,0,0,1,5.5,2.981c.064.059.125.121.187.183a11.8,11.8,0,0,1,3.46,7.98v.733a11.7,11.7,0,0,0,.166,1.66c.019.116.043.237.064.349.045.221.1.441.152.657a11.766,11.766,0,0,0,.733,2.018c.1.223.216.444.332.657.054.1.111.2.171.3a11.72,11.72,0,0,0,1.223,1.717,11.562,11.562,0,0,0,1.091,1.115c.173.157.351.306.532.453a11.779,11.779,0,0,0,2.134,1.347c.149.076.3.147.455.216a11.792,11.792,0,0,0,4.8,1.013H174.7c.681,0,1.352.036,2.016.1a19.59,19.59,0,0,1,6.878,2.018,19.843,19.843,0,0,1,4.153,2.825c.113.1.225.2.336.306s.188.173.278.263c.206.2.4.4.6.6a2.327,2.327,0,0,1,.214.237.079.079,0,0,1,.023.024c.074.078.145.157.211.237s.171.19.252.287c.118.135.237.273.346.413a3.285,3.285,0,0,1,.237.313c.069.107.159.2.237.308s.162.213.237.322c.035.044.068.089.1.135.154.218.3.439.448.664.1.149.19.3.283.451.161.266.315.536.474.809q.319.593.6,1.209.253.548.475,1.115a18.98,18.98,0,0,1,.652,2.016c.1.368.187.74.263,1.115a18.824,18.824,0,0,1,.3,2.018,19.2,19.2,0,0,1,.1,1.933v16.2a12.916,12.916,0,0,0,12.925,12.92h19.715a11.622,11.622,0,0,1,5.567,1.423,11.824,11.824,0,0,1,2.3,1.641c.13.119.258.237.382.365a12.259,12.259,0,0,1,.823.913,11.672,11.672,0,0,1,0,14.674,12.063,12.063,0,0,1-.823.913,11.625,11.625,0,0,1-6.728,3.32,11.371,11.371,0,0,1-1.521.1,7.414,7.414,0,0,0-2.061.295,7.167,7.167,0,0,0-1.9.875,6.382,6.382,0,0,0-.529.372,7.317,7.317,0,0,0-2.824,5.782v23.415a14.972,14.972,0,0,1-3.415,9.543,14.506,14.506,0,0,1-.992,1.1,14.779,14.779,0,0,1-2.246,1.845c-.163.114-.329.22-.5.325-.237.147-.474.287-.728.42l-.346.182a.754.754,0,0,1-.09.045c-.116.06-.237.116-.351.171a.111.111,0,0,1-.043.019c-.13.062-.261.121-.391.175s-.28.119-.42.174a13.636,13.636,0,0,1-1.335.457,15.031,15.031,0,0,1-1.537.361,15.3,15.3,0,0,1-1.909.213c-.237.012-.5.019-.745.019a10.261,10.261,0,0,0-10.2,9.1,9.818,9.818,0,0,0-.066,1.162,10.255,10.255,0,0,0,10.26,10.258h16.25a15.275,15.275,0,0,1,2.148.149,14.977,14.977,0,0,1,1.9.384c.211.057.419.119.628.183A15.588,15.588,0,0,1,231.955,197.012Z" fill="#f3f4fe"/><path d="M13.092,59.014v39.5a23.789,23.789,0,0,1-1.9-1.61V60.619l.062-.057c.178-.166.356-.327.538-.486Q12.431,59.523,13.092,59.014Z" fill="#eff1fd"/><path d="M11.195,201.525a15.553,15.553,0,0,1,1.9-3.116v19.3a15.366,15.366,0,0,1-1.724-2.73c-.064-.128-.126-.256-.185-.387Z" fill="#eff1fd"/><path d="M30.758,53.433v50.129h-1.9V53.924a6.771,6.771,0,0,0,1.9-.491Z" fill="#eff1fd"/><path d="M30.642,127.681c.036-.022.071-.043.109-.062v41.169a21.56,21.56,0,0,1-1.9-1.219V128.84Q29.722,128.218,30.642,127.681Z" fill="#eff1fd"/><path d="M28.849,192.437h1.909v31.237H28.849Z" fill="#eff1fd"/><path d="M48.415,30.272v73.283H46.506V30.272h1.909Z" fill="#eff1fd"/><path d="M46.506,124.482h1.909v47.792a10.207,10.207,0,0,0-1.909-.323Z" fill="#eff1fd"/><path d="M46.506,192.409a10.042,10.042,0,0,0,1.909-.323v31.588H46.506Z" fill="#eff1fd"/><path d="M66.069,30.272v75.22a10.13,10.13,0,0,0-1.909-1.074V30.272Z" fill="#eff1fd"/><path d="M64.16,123.625a10.358,10.358,0,0,0,1.909-1.072V223.674H64.16Z" fill="#eff1fd"/><path d="M81.816,30.272h1.909v193.4H81.816Z" fill="#eff1fd"/><path d="M99.473,30.272h1.909v193.4H99.473Z" fill="#eff1fd"/><path d="M119.036,30.578v193.1h-1.909V30.3A11.49,11.49,0,0,1,119.036,30.578Z" fill="#eff1fd"/><path d="M136.693,53.485V223.674h-1.9V52.736c.149.076.3.147.455.216A11.653,11.653,0,0,0,136.693,53.485Z" fill="#eff1fd"/><path d="M152.44,53.964h1.909v169.71H152.44Z" fill="#eff1fd"/><path d="M170.094,53.964H172v169.71h-1.91Z" fill="#eff1fd"/><path d="M189.66,60.854v162.82h-1.9V58.909c.114.1.225.2.337.306s.187.173.277.263c.207.2.406.4.6.6a2.3,2.3,0,0,1,.214.237.072.072,0,0,1,.024.024c.073.078.144.157.211.237S189.58,60.761,189.66,60.854Z" fill="#eff1fd"/><path d="M207.326,102.805v68.886a15.292,15.292,0,0,1-1.909.213V102.653A12.851,12.851,0,0,0,207.326,102.805Z" fill="#eff1fd"/><path d="M205.408,192.437h1.909v31.237h-1.909Z" fill="#eff1fd"/><path d="M224.971,102.805v23.628a7.2,7.2,0,0,0-1.9.875v-24.5Z" fill="#eff1fd"/><path d="M224.971,192.971V223.14a14.935,14.935,0,0,1-1.9.387v-30.94A14.926,14.926,0,0,1,224.971,192.971Z" fill="#eff1fd"/><rect width="17.564" height="4.176" rx="2.088" transform="translate(38.587 227.945) rotate(180)" fill="#7986bf"/><rect width="192.085" height="4.176" rx="2.088" transform="translate(232.37 227.945) rotate(180)" fill="#7986bf"/><path d="M52.759,43.536H63.693a1.093,1.093,0,0,1,1.1,1.1V70.826H52.759Z" fill="#6675ad"/><path d="M51.986,43.536H62.919v27.29H50.884V44.634a1.093,1.093,0,0,1,1.093-1.093Z" fill="#7986bf"/><circle cx="2.889" cy="2.889" r="2.889" transform="translate(53.843 49.074)" fill="#6675ad"/><circle cx="1.311" cy="1.311" r="1.311" transform="translate(55.421 50.651)" fill="#f3f4fe"/><ellipse cx="4.696" cy="4.696" rx="4.696" ry="4.696" transform="translate(52.036 60.683)" fill="#6675ad"/><circle cx="2.13" cy="2.13" r="2.13" transform="translate(54.602 63.249)" fill="#f3f4fe"/><path d="M76.329,43.536H87.262a1.093,1.093,0,0,1,1.093,1.093v26.2H76.329Z" fill="#6675ad"/><path d="M75.546,43.536H86.479v27.29H74.453V44.634a1.093,1.093,0,0,1,1.093-1.1Z" fill="#7986bf"/><circle cx="2.889" cy="2.889" r="2.889" transform="translate(77.412 49.074)" fill="#6675ad"/><ellipse cx="1.311" cy="1.311" rx="1.311" ry="1.311" transform="translate(78.99 50.651)" fill="#f3f4fe"/><circle cx="4.696" cy="4.696" r="4.696" transform="translate(75.605 60.683)" fill="#6675ad"/><circle cx="2.13" cy="2.13" r="2.13" transform="translate(78.171 63.249)" fill="#f3f4fe"/><path d="M34,76.3h71.036l-4.676-5.471H38.677Z" fill="#d2d6fa"/><path d="M91.73,76.3v7.342l-4.985,3.508V76.3Z" fill="#d2d6fa"/><path d="M53.5,76.3v10.85l-4.985-3.508V76.3Z" fill="#d2d6fa"/><path d="M48.514,76.3H53.5v2.27H48.514Z" fill="#969ecc"/><path d="M86.745,76.3H91.73v2.27H86.745Z" fill="#969ecc"/><path d="M156.564,75.19h27.063v30.39H156.564Z" fill="#d2d6fa"/><path d="M158.934,77.849H181.26v25.07H158.934Z" fill="#f3f4fe"/><path d="M165.553,86.038l5.988,11.049-10.667.709Z" fill="#d2d6fa"/><path d="M178.632,80.752l-4.174,7.558-4.364-5.91Z" fill="#d2d6fa"/><path d="M177.978,91.917l-.875,5.217-3.724-2.528Z" fill="#d2d6fa"/><circle cx="6.327" cy="6.327" r="6.327" transform="translate(120.906 66.448)" fill="#332d52"/><path d="M118.778,96.724a7.575,7.575,0,1,1,9.227,12.015l-19.237,14.772A7.575,7.575,0,1,1,99.541,111.5Z" fill="#faeede"/><circle cx="8.13" cy="8.13" r="8.13" transform="translate(96.048 108.819)" fill="#f2e6d7"/><path d="M85.316,95.7a6.255,6.255,0,0,1,11.067-5.833l12.539,23.792a6.255,6.255,0,1,1-11.068,5.832Z" fill="#ef948c"/><path d="M92.856,86.346a6.2,6.2,0,0,1-4.933,11.367L82.95,95.555a6.2,6.2,0,0,1,4.933-11.367Z" fill="#ef948c"/><path d="M91.758,85.869a2.241,2.241,0,1,1-1.784,4.112l-11.511-5a2.241,2.241,0,0,1,1.784-4.112Z" fill="#ef948c"/><path d="M95.033,87.057a2.232,2.232,0,0,1-3.72,2.465L87.474,83.73a2.232,2.232,0,0,1,3.72-2.465Z" fill="#ea8681"/><circle cx="4.416" cy="4.416" r="4.416" transform="translate(86.889 85.393)" fill="#ea8681"/><path d="M118.778,96.724a7.575,7.575,0,1,1,9.227,12.015l-19.237,14.772A7.575,7.575,0,1,1,99.541,111.5Z" fill="#f2e6d7"/><circle cx="8.13" cy="8.13" r="8.13" transform="translate(96.048 108.819)" fill="#faeede"/><path d="M85.316,95.7a6.255,6.255,0,0,1,11.067-5.833l12.539,23.792a6.255,6.255,0,1,1-11.068,5.832Z" fill="#ef948c"/><path d="M92.856,86.346a6.2,6.2,0,0,1-4.933,11.367L82.95,95.555a6.2,6.2,0,0,1,4.933-11.367Z" fill="#ef948c"/><path d="M79.734,87.4a6.294,6.294,0,0,1,.858-1.423,6.183,6.183,0,0,0,3.465,7.478l.6.263,2.355,1.022L88.732,98,98.958,117.4a6.258,6.258,0,0,0,10.421.989,6.256,6.256,0,0,1-11.519,1.1L85.919,96.826l-2.962-1.285A6.188,6.188,0,0,1,79.734,87.4Z" fill="#ea8681"/><path d="M91.758,85.869a2.241,2.241,0,1,1-1.784,4.112l-11.511-5a2.241,2.241,0,0,1,1.784-4.112Z" fill="#ef948c"/><path d="M95.033,87.057a2.232,2.232,0,0,1-3.72,2.465L87.474,83.73a2.232,2.232,0,0,1,3.72-2.465Z" fill="#ef948c"/><ellipse cx="4.416" cy="4.416" rx="4.416" ry="4.416" transform="translate(86.889 85.393)" fill="#ef948c"/><circle cx="11.872" cy="11.872" r="11.872" transform="translate(115.785 92.883)" fill="#f2e6d7"/><path d="M142.127,158.371a17.9,17.9,0,0,1-18.306-17.494L123.211,114a17.9,17.9,0,1,1,35.8-.812l.61,26.875A17.9,17.9,0,0,1,142.127,158.371Z" fill="#faeede"/><path d="M118.06,104.254a13.259,13.259,0,0,1,12.992-13.523l19.952-.4a13.259,13.259,0,0,1,13.522,12.992,21.876,21.876,0,0,1-21.435,22.311l-2.723.055a21.878,21.878,0,0,1-22.308-21.436Z" fill="#faeede"/><path d="M142.717,125.378h.021a21.874,21.874,0,0,0,21.371-22.364A13.258,13.258,0,0,0,150.555,90.06l-19.948.453a13.189,13.189,0,0,0-2.706.341l19.149-.436h.308a13.258,13.258,0,0,1,13.248,12.954A21.876,21.876,0,0,1,142.717,125.378Z" fill="#fff7ee"/><path d="M133.89,80.83l.256,11.3a6.462,6.462,0,0,0,6.472,6.327h.147a6.473,6.473,0,0,0,6.323-6.626L147,87.959l-.17-7.425a6.473,6.473,0,0,0-6.473-6.327h-.149A6.477,6.477,0,0,0,133.89,80.83Z" fill="#ef948c"/><path d="M103.242,159.255a10.164,10.164,0,1,1-.461-20.322l46.625-1.058a10.164,10.164,0,1,1,.461,20.322Z" fill="#332d52"/><path d="M139.529,148.769v60.692h20.33V148.769a10.165,10.165,0,1,0-20.33,0Z" fill="#666da2"/><path d="M139.529,148.769v60.692h5.287V158a10.167,10.167,0,0,1,15.043-8.92v-.317a10.165,10.165,0,1,0-20.33,0Z" fill="#555a8b"/><path d="M139.529,200.714v8.742h20.33v-5.55Z" fill="#141334"/><path d="M72.313,202.647l18.121,7.264,2.047-5.3,19.957-51.7a10.168,10.168,0,0,0-18.973-7.319l-18.7,48.471-2.445,6.325Z" fill="#332d52"/><path d="M84.565,218.091,70.341,212.6l3.008-7.792L87.573,210.3Z" fill="#ea8681"/><path d="M157.319,218.845H142.072v-7.807h15.247Z" fill="#ef948c"/><path d="M133.89,80.83l.256,11.3a6.416,6.416,0,0,0,.28,1.75h.474a15.284,15.284,0,0,0,12.1-5.929l-.171-7.425a6.471,6.471,0,0,0-6.472-6.327h-.142a6.476,6.476,0,0,0-6.32,6.633Z" fill="#ea8681"/><path d="M122.66,75.536a15.311,15.311,0,0,0,14.467,15.287c.273.014.545.021.823.021a15.309,15.309,0,1,0,0-30.615c-.278,0-.55,0-.823.021A15.309,15.309,0,0,0,122.66,75.536Z" fill="#ef948c"/><path d="M131.651,79.668a3.41,3.41,0,0,0,1.006,2.414c.078.078.161.152.237.22a3.4,3.4,0,0,0,2.174.776h.14a3.416,3.416,0,0,0,3.4-3.145v-.285a.659.659,0,0,0-.194-.474.668.668,0,0,0-.474-.192L132.287,79A.662.662,0,0,0,131.651,79.668Z" fill="#962f4a"/><path d="M135.144,82.552a2.82,2.82,0,0,0,.052.527h.019a3.416,3.416,0,0,0,3.4-3.145,2.643,2.643,0,0,0-.756-.107,2.718,2.718,0,0,0-2.711,2.725Z" fill="#e1617f"/><path d="M132.436,79c.028.671,1.065,1.2,2.336,1.2s2.3-.543,2.326-1.214Z" fill="#fff"/><path d="M122.66,75.536a15.311,15.311,0,0,0,14.467,15.287c.422-.021.842-.062,1.257-.121a15.309,15.309,0,0,1,0-30.333c-.415-.057-.835-.1-1.257-.119A15.309,15.309,0,0,0,122.66,75.536Z" fill="#ea8681"/><path d="M150.6,102.765v.159c.149,5.056,3.521,9.066,7.638,9.126h.266c4.283-.112,7.684-4.454,7.589-9.7-.047-2.9-.664-5.25-2.371-6.946a9.587,9.587,0,0,0-3.558-2.075,6.4,6.4,0,0,0-3.32-.085C153.228,94.12,150.522,98.083,150.6,102.765Z" fill="#faeede"/><path d="M150.292,102.568v.161a10.012,10.012,0,0,0,4.48,8.3,10.79,10.79,0,0,1-2.135-6.166V104.7c-.1-4.757,2.666-8.775,6.4-9.638a6.5,6.5,0,0,1,1.38-.175,6.759,6.759,0,0,1,2.056.277,7.141,7.141,0,0,1,1.66.735,7.917,7.917,0,0,0-4.006-2.87,6.672,6.672,0,0,0-3.436-.1C152.955,93.8,150.187,97.813,150.292,102.568Z" fill="#f2e6d7"/><path d="M153.472,106.4a7.575,7.575,0,1,1,13.738-6.386l10.224,21.995a7.575,7.575,0,0,1-13.739,6.385Z" fill="#faeede"/><circle cx="8.13" cy="8.13" r="8.13" transform="translate(161.896 116.935)" fill="#f2e6d7"/><path d="M153.472,106.4a7.575,7.575,0,1,1,13.738-6.386l10.224,21.995a7.575,7.575,0,0,1-13.739,6.385Z" fill="#faeede"/><path d="M153.185,100.735a7.575,7.575,0,0,1,13.269.863l10.222,21.994a7.565,7.565,0,0,1,.294,5.664,7.626,7.626,0,0,0,1.186-4.058,7.507,7.507,0,0,0-.712-3.185l-10.221-22a7.573,7.573,0,0,0-14.028.712Z" fill="#fff7ee"/><circle cx="8.13" cy="8.13" r="8.13" transform="translate(161.896 116.935)" fill="#f2e6d7"/><rect width="37.509" height="14.666" rx="7.333" transform="translate(156.287 72.026) rotate(180)" fill="#332d52"/><ellipse cx="6.327" cy="6.327" rx="6.327" ry="6.327" transform="translate(145.679 66.448)" fill="#332d52"/><ellipse cx="5.196" cy="5.196" rx="5.196" ry="5.196" transform="translate(147.942 68.711)" fill="#49466b"/><circle cx="5.073" cy="5.073" r="5.073" transform="translate(148.188 70.466)" fill="#ef948c"/><path d="M152.862,77.125V73.955a.5.5,0,0,1,.657-.474,2.163,2.163,0,0,1,0,4.119.5.5,0,0,1-.657-.474Z" fill="#ea8681"/><ellipse cx="9.693" cy="9.693" rx="9.693" ry="9.693" transform="translate(117.54 52.771)" fill="#332d52"/><path d="M118.422,62.464a8.113,8.113,0,0,0,9.074,8.063,8.111,8.111,0,0,1,0-16.108,8.113,8.113,0,0,0-9.074,8.063Z" fill="#49466b"/><circle cx="6.669" cy="6.669" r="6.669" transform="translate(128.238 49.933)" fill="#332d52"/><path d="M127.5,74.339a1.8,1.8,0,0,0,3.6,0,1.779,1.779,0,0,0-.05-.417,1.8,1.8,0,0,1-3.5,0A1.679,1.679,0,0,0,127.5,74.339Z" fill="#332d52"/><path d="M137.378,74.339a1.8,1.8,0,1,0,3.6,0,1.726,1.726,0,0,0-.049-.417,1.8,1.8,0,0,1-3.5,0A1.779,1.779,0,0,0,137.378,74.339Z" fill="#332d52"/><path d="M139.532,222.725H158.9a9.687,9.687,0,0,0-8.04-9.548,9.866,9.866,0,0,0-1.646-.138,9.684,9.684,0,0,0-9.685,9.686Z" fill="#332d52"/><path d="M139.532,222.725h4.473a10.079,10.079,0,0,1,6.858-9.546,9.972,9.972,0,0,0-1.646-.137,9.683,9.683,0,0,0-9.685,9.683Z" fill="#49466b"/><path d="M136.849,220.972a2.975,2.975,0,0,0,.057.565c.019.09.042.18.069.268a2.526,2.526,0,0,0,.1.256,2.726,2.726,0,0,0,.417.69c.057.069.117.133.181.2a2.4,2.4,0,0,0,.2.178,2.775,2.775,0,0,0,1.776.638h20.671a2.1,2.1,0,0,0,.1-4.205l-15.5-1.034-5.144-.344a2.765,2.765,0,0,0-1.342.27,3.129,3.129,0,0,0-.351.2,3.452,3.452,0,0,0-.315.237,2.643,2.643,0,0,0-.278.292,2.422,2.422,0,0,0-.161.216,2.723,2.723,0,0,0-.389.865,2.51,2.51,0,0,0-.057.271,2.92,2.92,0,0,0-.036.438Z" fill="#332d52"/><path d="M136.849,220.972a2.975,2.975,0,0,0,.057.565,2.064,2.064,0,0,0,.069.268,1.967,1.967,0,0,0,.1.256,2.726,2.726,0,0,0,.417.69c.057.069.117.133.181.2a2.4,2.4,0,0,0,.2.178,2.775,2.775,0,0,0,1.776.638h6.629a2.791,2.791,0,0,1-1.35-5.239l-5.144-.344a2.765,2.765,0,0,0-1.342.27,2.8,2.8,0,0,0-.666.449,2.636,2.636,0,0,0-.278.291,2.244,2.244,0,0,0-.161.216,2.738,2.738,0,0,0-.389.866,2.493,2.493,0,0,0-.057.27,2.813,2.813,0,0,0-.036.429Z" fill="#49466b"/><path d="M85.361,220.533,69.8,213.99l2.467-5.868L85.3,213.6a2.743,2.743,0,0,1,1.466,3.592Z" fill="#49466b"/><path d="M58.036,211.135l17.858,7.506a9.686,9.686,0,0,0-17.858-7.506Z" fill="#332d52"/><path d="M58.036,211.135l5.018,2.12a9.687,9.687,0,0,1,10.022-5.872,9.687,9.687,0,0,0-15.041,3.764Z" fill="#49466b"/><path d="M86.543,219.682,60.889,207.4a2.794,2.794,0,1,0-2.289,5.1l26.218,11.021a2.105,2.105,0,0,0,1.724-3.84Z" fill="#332d52"/><path d="M57.109,208.844A2.793,2.793,0,0,0,58.6,212.5l6.109,2.569a2.794,2.794,0,0,1,.977-5.372l-4.8-2.3a2.792,2.792,0,0,0-3.783,1.444Z" fill="#49466b"/><path d="M170.028,136.506l1.6,4.562,2.815,8.038,26.168,74.67h5.837l-20.059-74.67-2.158-8.038-1.227-4.562Z" fill="#441242"/><path d="M171.629,141.068l2.815,8.038H186.39l-2.158-8.038Z" fill="#2f073a"/><path d="M86.436,136.506l-1.6,4.562-2.815,8.038-26.168,74.67H50.016l20.059-74.67,2.158-8.038,1.226-4.562Z" fill="#441242"/><path d="M84.835,141.068l-2.815,8.038H70.075l2.158-8.038Z" fill="#2f073a"/><path d="M199.384,144.543H60.368a3.477,3.477,0,0,1-3.479-3.467v-4.559H202.863v4.559A3.477,3.477,0,0,1,199.384,144.543Z" fill="#441242"/><rect width="181.031" height="6.375" rx="3.187" transform="translate(220.391 138.652) rotate(180)" fill="#d8ba9f"/><path d="M39.36,135.467a3.189,3.189,0,0,0,3.187,3.187H217.2a3.187,3.187,0,0,0,3.187-3.187,3.144,3.144,0,0,0-.2-1.1,3.186,3.186,0,0,1-2.991,2.082H42.548a3.164,3.164,0,0,1-2.253-.934,3.082,3.082,0,0,1-.735-1.148A3.149,3.149,0,0,0,39.36,135.467Z" fill="#c89f87"/><ellipse cx="1.179" cy="1.179" rx="1.179" ry="1.179" transform="translate(196.395 140.335)" fill="#d8ba9f"/><circle cx="1.437" cy="1.437" r="1.437" transform="translate(195.881 140.156)" fill="#2f073a"/><ellipse cx="1.179" cy="1.179" rx="1.179" ry="1.179" transform="translate(196.395 140.335)" fill="#d8ba9f"/><path d="M196.4,141.514a1.185,1.185,0,0,0,1.185,1.186h.124a1.185,1.185,0,0,1,0-2.345.858.858,0,0,0-.124,0,1.184,1.184,0,0,0-1.185,1.159Z" fill="#c89f87"/><path d="M197.574,142.159a.611.611,0,0,0,.185.029.674.674,0,1,0,0-1.347.61.61,0,0,0-.185.028.669.669,0,0,1,0,1.29Z" fill="#f5eae4"/><ellipse cx="1.179" cy="1.179" rx="1.179" ry="1.179" transform="translate(189.802 140.335)" fill="#d8ba9f"/><ellipse cx="1.437" cy="1.437" rx="1.437" ry="1.437" transform="translate(189.288 140.156)" fill="#2f073a"/><ellipse cx="1.179" cy="1.179" rx="1.179" ry="1.179" transform="translate(189.802 140.335)" fill="#d8ba9f"/><path d="M189.8,141.514a1.186,1.186,0,0,0,1.186,1.186h.123a1.186,1.186,0,0,1,0-2.345.844.844,0,0,0-.123,0,1.185,1.185,0,0,0-1.186,1.159Z" fill="#c89f87"/><path d="M190.981,142.159a.611.611,0,0,0,.185.029.674.674,0,1,0,0-1.347.61.61,0,0,0-.185.028.669.669,0,0,1,0,1.29Z" fill="#f5eae4"/><ellipse cx="1.179" cy="1.179" rx="1.179" ry="1.179" transform="translate(61.634 140.335)" fill="#d8ba9f"/><ellipse cx="1.437" cy="1.437" rx="1.437" ry="1.437" transform="translate(61.632 140.156)" fill="#2f073a"/><ellipse cx="1.179" cy="1.179" rx="1.179" ry="1.179" transform="translate(61.634 140.335)" fill="#d8ba9f"/><path d="M63.992,141.514a1.186,1.186,0,0,1-1.186,1.186h-.123a1.186,1.186,0,0,0,0-2.345.848.848,0,0,1,.123,0A1.185,1.185,0,0,1,63.992,141.514Z" fill="#c89f87"/><path d="M62.813,142.159a.611.611,0,0,1-.185.029.674.674,0,0,1,0-1.347.61.61,0,0,1,.185.028.671.671,0,0,0,0,1.29Z" fill="#f5eae4"/><ellipse cx="1.179" cy="1.179" rx="1.179" ry="1.179" transform="translate(68.227 140.335)" fill="#d8ba9f"/><circle cx="1.437" cy="1.437" r="1.437" transform="translate(68.225 140.156)" fill="#2f073a"/><ellipse cx="1.179" cy="1.179" rx="1.179" ry="1.179" transform="translate(68.227 140.335)" fill="#d8ba9f"/><path d="M70.582,141.514A1.186,1.186,0,0,1,69.4,142.7h-.123a1.186,1.186,0,0,0,0-2.345.848.848,0,0,1,.123,0A1.185,1.185,0,0,1,70.582,141.514Z" fill="#c89f87"/><path d="M69.406,142.159a.611.611,0,0,1-.185.029.674.674,0,1,1,0-1.347.61.61,0,0,1,.185.028.669.669,0,0,0,0,1.29Z" fill="#f5eae4"/><path d="M140.7,120.2a2.241,2.241,0,0,1,.409,4.464l-6.951.636a2.241,2.241,0,0,1-.409-4.464Z" fill="#ea8681"/><ellipse cx="4.416" cy="4.416" rx="4.416" ry="4.416" transform="translate(137.162 119.909)" fill="#ea8681"/><path d="M143.931,132.4a6.255,6.255,0,0,1,.125-12.509l26.892.267a6.255,6.255,0,1,1-.124,12.51Z" fill="#ef948c"/><path d="M139.247,121.313a6.2,6.2,0,1,1,7.66,9.741l-4.262,3.351a6.2,6.2,0,0,1-7.659-9.741Z" fill="#ef948c"/><path d="M138.3,122.052a2.241,2.241,0,0,1,2.771,3.523l-9.864,7.757a2.241,2.241,0,1,1-2.77-3.524Z" fill="#ef948c"/><path d="M140.7,120.2a2.241,2.241,0,0,1,.409,4.464l-6.951.636a2.241,2.241,0,0,1-.409-4.464Z" fill="#ef948c"/><ellipse cx="4.416" cy="4.416" rx="4.416" ry="4.416" transform="translate(137.162 119.909)" fill="#ef948c"/><path d="M143.931,132.4a6.255,6.255,0,0,1,.125-12.509l26.892.267a6.255,6.255,0,1,1-.124,12.51Z" fill="#ef948c"/><path d="M139.247,121.313a6.2,6.2,0,1,1,7.66,9.741l-4.262,3.351a6.2,6.2,0,0,1-7.659-9.741Z" fill="#ef948c"/><path d="M133.344,131.8a6.2,6.2,0,0,0,8.7,1.041l.711-.562,1.821-1.423,2.566.024,23.048.237a6.257,6.257,0,0,0,6.318-6.192v-.064a6.2,6.2,0,0,0-.185-1.5,6.2,6.2,0,0,1,.806,3.069v.064a6.256,6.256,0,0,1-6.316,6.194l-25.613-.253-2.537,1.994a6.2,6.2,0,0,1-9.847-3.386A6.206,6.206,0,0,0,133.344,131.8Z" fill="#f3a6a0"/><path d="M138.3,122.052a2.241,2.241,0,0,1,2.771,3.523l-9.864,7.756a2.241,2.241,0,1,1-2.77-3.523Z" fill="#ef948c"/><path d="M141.35,126.075a1.957,1.957,0,1,1,2.419,3.076l-2.863,2.251a1.957,1.957,0,1,1-2.419-3.076Z" fill="#f3a6a0"/><ellipse cx="6.543" cy="6.543" rx="6.543" ry="6.543" transform="translate(119.748 67.945)" fill="none" stroke="#fff" stroke-width="2.85"/><circle cx="6.543" cy="6.543" r="6.543" transform="translate(135.187 67.945)" fill="none" stroke="#fff" stroke-width="2.85"/><path d="M132.83,74.744h2.362" fill="none" stroke="#fff" stroke-width="2.85"/><path d="M72.313,202.647l18.121,7.264,2.047-5.3L74.766,194.057l-2.445,6.328Z" fill="#141334"/><path d="M98.776,130.3H95.066v-.711a1.219,1.219,0,0,1,1.219-1.219h1.274a1.219,1.219,0,0,1,1.219,1.219v.711Z" fill="#abb2d8"/><path d="M102.485,130.3H98.776v-.711a1.219,1.219,0,0,1,1.219-1.219h1.273a1.219,1.219,0,0,1,1.219,1.219v.711Z" fill="#abb2d8"/><path d="M106.2,130.3h-3.709v-.711a1.219,1.219,0,0,1,1.219-1.219h1.274a1.219,1.219,0,0,1,1.219,1.219v.711Z" fill="#abb2d8"/><path d="M109.906,130.3H106.2v-.711a1.219,1.219,0,0,1,1.219-1.219h1.273a1.219,1.219,0,0,1,1.219,1.219v.711Z" fill="#abb2d8"/><path d="M113.615,130.3h-3.709v-.711a1.219,1.219,0,0,1,1.219-1.219H112.4a1.219,1.219,0,0,1,1.219,1.219v.711Z" fill="#abb2d8"/><path d="M117.326,130.3h-3.709v-.711a1.219,1.219,0,0,1,1.219-1.219h1.271a1.219,1.219,0,0,1,1.219,1.219v.711Z" fill="#abb2d8"/><path d="M121.033,130.3h-3.709v-.711a1.219,1.219,0,0,1,1.219-1.219h1.274a1.219,1.219,0,0,1,1.219,1.219v.711Z" fill="#abb2d8"/><rect width="42.342" height="3.024" rx="1.512" transform="translate(125.966 132.277) rotate(180)" fill="#5d6295"/><path d="M95.287,132.277H59.95a3.231,3.231,0,0,1-3.133-2.443L49.94,102.475a3.232,3.232,0,0,1,3.135-4.019H84.257A3.23,3.23,0,0,1,87.39,100.9Z" fill="#666da2"/><path d="M49.937,102.478l6.878,27.356a3.236,3.236,0,0,0,3.135,2.445H95.287l-.761-3.023H66.612a3.236,3.236,0,0,1-3.135-2.446L56.6,99.454a3.281,3.281,0,0,1-.093-1H53.073a3.235,3.235,0,0,0-3.135,4.022Z" fill="#5d6295"/><ellipse cx="1.769" cy="1.769" rx="1.769" ry="1.769" transform="translate(68.63 114.502)" fill="#abb2d8"/><path d="M68.033,118.918a3.465,3.465,0,1,0,4.786-4.8,3.467,3.467,0,0,1-4.786,4.786Z" fill="#abb2d8"/><path d="M139.529,211.085h20.33l2.072-5.224-26.1-4.1Z" fill="#332d52"/><ellipse cx="1.269" cy="1.269" rx="1.269" ry="1.269" transform="translate(156.901 207.639)" fill="#141334"/><circle cx="0.925" cy="0.925" r="0.925" transform="translate(157.319 208.327)" fill="#666da2"/><path d="M158.234,209.857a.854.854,0,0,0,.123.012.619.619,0,0,0,0-1.236.573.573,0,0,0-.123.014.619.619,0,0,1,0,1.21Z" fill="#332d52"/><path d="M158.386,208.479a.71.71,0,0,0-.159-.017.79.79,0,0,0,0,1.577.71.71,0,0,0,.159-.016.79.79,0,0,1,0-1.544Z" fill="#9da5d1"/><path d="M70.8,203.883l18.868,7.563,3.868-4.077-22.7-13.516Z" fill="#262344"/><ellipse cx="1.269" cy="1.269" rx="1.269" ry="1.269" transform="translate(87.738 206.764)" fill="#141334"/><circle cx="0.925" cy="0.925" r="0.925" transform="translate(88.156 207.452)" fill="#666da2"/><path d="M89.081,208.986A.513.513,0,0,0,89.2,209a.619.619,0,0,0,0-1.236.635.635,0,0,0-.123,0,.619.619,0,0,1,0,1.21Z" fill="#332d52"/><path d="M89.221,207.6a.708.708,0,0,0-.159-.017.79.79,0,0,0,0,1.577.708.708,0,0,0,.159-.016.79.79,0,0,1,0-1.544Z" fill="#9da5d1"/></g></svg>