<svg xmlns="http://www.w3.org/2000/svg" width="46.752" height="51.803" viewBox="0 0 46.752 51.803"><g transform="translate(-0.5 -0.5)" opacity="0.5"><path d="M45.752,36.025V16.579a4.861,4.861,0,0,0-2.431-4.205L26.307,2.651a4.861,4.861,0,0,0-4.861,0L4.431,12.374A4.861,4.861,0,0,0,2,16.579V36.025a4.861,4.861,0,0,0,2.431,4.2l17.015,9.723a4.861,4.861,0,0,0,4.861,0l17.015-9.723a4.861,4.861,0,0,0,2.431-4.2Z" fill="none" stroke="#000" stroke-linecap="round" stroke-linejoin="round" stroke-width="3"/><path d="M2.656,14.051l21.22,12.275L45.1,14.051" fill="none" stroke="#000" stroke-linecap="round" stroke-linejoin="round" stroke-width="3"/><path d="M23.876,50.8V26.3" fill="none" stroke="#000" stroke-linecap="round" stroke-linejoin="round" stroke-width="3"/></g></svg>