<svg width="67" height="62" viewBox="0 0 67 62" fill="none" xmlns="http://www.w3.org/2000/svg">
<path d="M52.5415 12.817L8.77436 19.6481C5.75287 20.1197 3.68577 22.9514 4.15736 25.9729L8.42681 53.3274C8.8984 56.3489 11.7301 58.416 14.7516 57.9444L58.5187 51.1133C61.5402 50.6417 63.6073 47.81 63.1357 44.7885L58.8663 17.434C58.3947 14.4125 55.563 12.3454 52.5415 12.817Z" stroke="#E0E0E0" stroke-width="5" stroke-linecap="round" stroke-linejoin="round"/>
<path d="M47.5769 52.821L40.7458 9.05381C40.5193 7.60284 39.7257 6.30126 38.5396 5.4354C37.3535 4.56955 35.872 4.21034 34.421 4.4368L23.4792 6.14458C22.0282 6.37105 20.7266 7.16464 19.8608 8.35076C18.9949 9.53689 18.6357 11.0184 18.8622 12.4694L25.6933 56.2365" stroke="#E0E0E0" stroke-width="5" stroke-linecap="round" stroke-linejoin="round"/>
</svg>
