<svg width="322" height="116" viewBox="0 0 322 116" fill="none" xmlns="http://www.w3.org/2000/svg">
    <path opacity="0.10" d="M1018.59 90.644C1018.59 87.0798 1016.7 83.7877 1013.61 82.0052C936.083 37.2315 845.357 -9.14196 742 2.23387C667.468 10.4335 618.426 55.6487 552.859 77.6706C467.689 106.252 400.918 69.7521 324.713 45.2C221.88 12.1203 94.8271 21.1165 3.10017 67.9716C-13.9006 76.6765 -30.4688 86.7276 -47.0941 96.7333C-55.9512 102.064 -52.1299 116.326 -41.7925 116.326H1008.59C1014.11 116.326 1018.59 111.849 1018.59 106.326V90.644Z" fill="white"/>
    <path opacity="0.10" d="M671.379 116.297C671.379 116.31 671.365 116.319 671.353 116.313C665.674 113.6 659.996 110.933 654.385 108.267C519.839 45.4809 357.928 13.104 197.356 16.7587C61.3354 19.8991 -70.1434 49.5316 -186.72 98.1326C-196.583 102.245 -193.558 116.279 -182.872 116.279H671.36C671.37 116.279 671.379 116.287 671.379 116.297Z" fill="white"/>
</svg>
