<svg width="33" height="33" viewBox="0 0 33 33" fill="none" xmlns="http://www.w3.org/2000/svg">
    <path d="M30.815 21.835C29.8607 24.0917 28.3682 26.0803 26.4678 27.6269C24.5675 29.1736 22.3172 30.2311 19.9137 30.7072C17.5102 31.1832 15.0266 31.0632 12.6802 30.3577C10.3338 29.6522 8.19593 28.3826 6.45352 26.66C4.71111 24.9374 3.41722 22.8141 2.68495 20.4759C1.95268 18.1377 1.80434 15.6557 2.25289 13.2469C2.70145 10.8382 3.73324 8.57594 5.25806 6.65804C6.78289 4.74014 8.75432 3.22497 11 2.245" stroke="#EB5757" stroke-width="3" stroke-linecap="round" stroke-linejoin="round"/>
    <path d="M32 16C32 14.0302 31.612 12.0796 30.8582 10.2597C30.1044 8.43986 28.9995 6.78628 27.6066 5.3934C26.2137 4.00052 24.5601 2.89563 22.7403 2.14181C20.9204 1.38799 18.9698 1 17 1V16H32Z" fill="#EB5757"/>
</svg>
