<svg xmlns="http://www.w3.org/2000/svg" width="233.177" height="204.25" viewBox="0 0 233.177 204.25"><g transform="translate(-9.409 -23.884)"><path d="M236.033,146.876a34.013,34.013,0,0,1-8.039,35.29q-1.032,1.035-2.153,1.976a33.874,33.874,0,0,1-20.814,7.962c-.351,0-.7.015-1.054.015H181.652a6.666,6.666,0,0,0-2.469.466,6.743,6.743,0,0,0-4.285,6.281V214.54a9.492,9.492,0,0,1-9.486,9.5H62.106V198.866a6.746,6.746,0,0,0-6.737-6.747H42.108a32.686,32.686,0,0,1-32.7-32.7V156.85a33.952,33.952,0,0,1,1.413-9.974,27.861,27.861,0,0,1,3.243-7.009,28.626,28.626,0,0,1,4.561-5.433q1.062-.989,2.191-1.87a34.483,34.483,0,0,1,3.628-2.469q.637-.381,1.277-.741c.044-.027.1-.055.143-.079a45.264,45.264,0,0,1,8.35-3.445l.18-.055a10.822,10.822,0,0,0,7.631-9.053,10.543,10.543,0,0,0,.082-1.344V104.761c0-.274,0-.545.022-.815a15.558,15.558,0,0,1,7.308-12.387,14.015,14.015,0,0,1,1.482-.812,14.6,14.6,0,0,1,2.089-.83,15.537,15.537,0,0,1,3.951-.7h.067c.217,0,.437-.015.654-.015s.459,0,.684-.02.388-.025.575-.047a12.01,12.01,0,0,0,9.547-6.72c.141-.281.264-.568.375-.859a12,12,0,0,0-8.745-16.1c-.39-.079-.783-.141-1.181-.183-.19-.02-.383-.037-.575-.044s-.454-.022-.684-.022H40.885a20.6,20.6,0,0,1-6.668-1.1,20.047,20.047,0,0,1-2.976-1.289q-.679-.361-1.324-.766l-.032-.02a20.763,20.763,0,0,1-4.645-4c-.427-.494-.835-1.018-1.218-1.556a20.559,20.559,0,0,1-1.976-3.438,19.543,19.543,0,0,1-.808-2.114,20.109,20.109,0,0,1-.8-3.438,20.408,20.408,0,0,1-.19-2.109c0-.274-.017-.551-.017-.83a21.131,21.131,0,0,1,.163-2.605,20.592,20.592,0,0,1,.378-2.109c.094-.415.207-.822.328-1.235a21.063,21.063,0,0,1,1.2-3.084,19.7,19.7,0,0,1,1.134-2.023,20.142,20.142,0,0,1,1.415-1.976c.128-.158.247-.314.39-.469s.269-.309.41-.457a20.577,20.577,0,0,1,15.077-6.7H180.657a24.184,24.184,0,0,1,24.182,24.182,17.083,17.083,0,0,0,17.07,17.112,20.656,20.656,0,1,1,.042,41.311H177.778a8.835,8.835,0,0,0-8.832,8.829c0,.161,0,.321.015.479a8.818,8.818,0,0,0,8.817,8.352h26.177a33.834,33.834,0,0,1,21.486,7.656,34.211,34.211,0,0,1,5.393,5.532c.63.817,1.235,1.662,1.788,2.536A33.779,33.779,0,0,1,236.033,146.876Z" fill="#f0f3f9"/><rect width="212.628" height="4.349" rx="2.174" transform="translate(18.236 223.786)" fill="#34629b"/><path d="M140.511,23.9V132.369a2.059,2.059,0,0,1-2.059,2.062H18.617q1.062-.987,2.191-1.869a34.506,34.506,0,0,1,3.628-2.47q.637-.379,1.277-.741c.044-.027.1-.054.143-.079a45.4,45.4,0,0,1,8.35-3.445l.18-.054A10.746,10.746,0,0,0,37.9,123.96a10.867,10.867,0,0,0,4.112-7.241,10.5,10.5,0,0,0,.081-1.343V104.761c0-.274,0-.545.022-.814a15.559,15.559,0,0,1,7.307-12.388,14.016,14.016,0,0,1,1.482-.812A14.593,14.593,0,0,1,53,89.917a15.536,15.536,0,0,1,3.951-.7h.067c.217,0,.437-.015.654-.015s.459,0,.684-.02.388-.025.575-.047a12.009,12.009,0,0,0,9.547-6.72c.141-.281.264-.568.375-.859a12,12,0,0,0-8.745-16.1c-.39-.079-.783-.141-1.18-.183-.19-.02-.383-.037-.575-.044s-.454-.022-.684-.022H40.875a20.6,20.6,0,0,1-6.668-1.1,20.038,20.038,0,0,1-2.976-1.289q-.679-.361-1.324-.766l-.032-.02a20.762,20.762,0,0,1-4.635-4c-.427-.494-.835-1.018-1.218-1.556a20.552,20.552,0,0,1-1.976-3.438,19.535,19.535,0,0,1-.808-2.114,20.116,20.116,0,0,1-.8-3.438,20.405,20.405,0,0,1-.19-2.109c0-.274-.017-.551-.017-.83a21.112,21.112,0,0,1,.163-2.605,20.564,20.564,0,0,1,.378-2.109c.094-.415.207-.822.328-1.235a21.051,21.051,0,0,1,1.2-3.084,19.724,19.724,0,0,1,1.134-2.023,20.142,20.142,0,0,1,1.415-1.976c.128-.158.247-.314.39-.469s.269-.309.41-.457a20.577,20.577,0,0,1,15.077-6.7H140.5Z" fill="#6e8ec8"/><path d="M136.5,23.9V127.507a1.4,1.4,0,0,1-.035.2.648.648,0,0,1-.034.151c-.013.05-.032.1-.045.143a1.056,1.056,0,0,1-.057.129,1.579,1.579,0,0,1-.066.145,1.484,1.484,0,0,1-.106.171,1.654,1.654,0,0,1-.117.158,1.693,1.693,0,0,1-.135.146,1.513,1.513,0,0,1-.144.133c-.054.042-.106.082-.16.119a1.6,1.6,0,0,1-.168.1,1.751,1.751,0,0,1-.18.087c-.062.024-.126.049-.19.069s-.131.037-.2.052a2.1,2.1,0,0,1-.412.042H25.712c.045-.027.1-.055.143-.079a45.265,45.265,0,0,1,8.35-3.445l.18-.055a10.822,10.822,0,0,0,7.631-9.053,10.543,10.543,0,0,0,.082-1.344V104.761c0-.274,0-.545.022-.814a15.558,15.558,0,0,1,7.308-12.388,14.015,14.015,0,0,1,1.482-.812A14.6,14.6,0,0,1,53,89.917a15.538,15.538,0,0,1,3.951-.7h.067c.217,0,.437-.015.654-.015s.459,0,.684-.02.388-.025.575-.047a12.009,12.009,0,0,0,9.547-6.72c.141-.281.264-.568.375-.859a12,12,0,0,0-8.745-16.1c-.39-.079-.783-.141-1.181-.183-.19-.02-.383-.037-.575-.044s-.454-.022-.684-.022H40.875a20.6,20.6,0,0,1-6.668-1.1,20.041,20.041,0,0,1-2.976-1.289q-.679-.361-1.324-.766l-.032-.02a20.762,20.762,0,0,1-4.635-4c-.427-.494-.835-1.018-1.218-1.556a20.559,20.559,0,0,1-1.976-3.438,19.535,19.535,0,0,1-.808-2.114,20.107,20.107,0,0,1-.8-3.438,20.378,20.378,0,0,1-.19-2.109c0-.274-.017-.551-.017-.83a21.131,21.131,0,0,1,.163-2.605,20.592,20.592,0,0,1,.378-2.109c.094-.415.207-.822.328-1.235a21.063,21.063,0,0,1,1.2-3.084,19.7,19.7,0,0,1,1.134-2.023,20.142,20.142,0,0,1,1.415-1.976c.128-.158.247-.314.39-.469s.269-.309.41-.457a20.577,20.577,0,0,1,15.077-6.7H136.5Z" fill="#e9f1ff"/><path d="M136.5,31.481V127.3a2.065,2.065,0,0,1-2.059,2.063H70.128v-86.1l.156-.106,2.47-1.669L81.3,35.687H94.994l2.8-1.5,1.279-.684.7-.378,2.964-1.59,6.915-3.7,7.085,1.608v8.53h3.677V23.892h6.194l1.934,1.934v5.646Z" fill="#b3c9eb"/><path d="M121.061,48.062v81.3h13.377A2.063,2.063,0,0,0,136.5,127.3V42.414H131.4Z" fill="#819fcc"/><path d="M81.3,35.687h5.887v93.672H81.3Z" fill="#819fcc"/><path d="M34.2,31.121V64.092A20.048,20.048,0,0,1,31.229,62.8q-.679-.36-1.324-.765l-.032-.02a20.763,20.763,0,0,1-4.633-3.986c-.427-.494-.835-1.018-1.218-1.556a20.559,20.559,0,0,1-1.976-3.438,19.543,19.543,0,0,1-.808-2.114,20.109,20.109,0,0,1-.8-3.438,20.38,20.38,0,0,1-.19-2.109c0-.274-.017-.551-.017-.83a21.131,21.131,0,0,1,.163-2.605,20.592,20.592,0,0,1,.378-2.109c.094-.415.207-.822.328-1.235a21.063,21.063,0,0,1,1.2-3.084l5.468-2.023,5.312-1.976Z" fill="#b3c9eb"/><path d="M25.855,129.28a45.262,45.262,0,0,1,8.35-3.445v3.524H25.712C25.756,129.332,25.808,129.3,25.855,129.28Z" fill="#b3c9eb"/><path d="M42.016,47.1V65.2H40.88a20.6,20.6,0,0,1-6.668-1.1V42.414Z" fill="#88a5d2"/><path d="M42.016,116.727v12.632H34.205v-3.524l.18-.055a10.822,10.822,0,0,0,7.631-9.053Z" fill="#88a5d2"/><path d="M58.35,39.532V65.216c-.225-.015-.454-.022-.684-.022H50.9V36.408l6.036,2.534Z" fill="#b3c9eb"/><path d="M57.666,89.2c.23,0,.459,0,.684-.02v40.176H50.9V90.744a14.614,14.614,0,0,1,2.089-.83,15.537,15.537,0,0,1,3.951-.7h.067c.217,0,.437-.015.654-.015Z" fill="#b3c9eb"/><path d="M50.9,36.408V65.2H45.377V38.329L49.783,36.8Z" fill="#819fcc"/><path d="M49.428,91.557a14.015,14.015,0,0,1,1.482-.812v38.615H45.38V95.2A15.6,15.6,0,0,1,49.428,91.557Z" fill="#819fcc"/><path d="M114.807,41.488H95.369V39.409h19.438Z" fill="#d1def5"/><path d="M71.715,51.329l8.3-.267V40.448l-8.3,5.581Z" fill="#d1def5"/><path d="M114.807,48.294H95.369V46.215h19.438Z" fill="#d1def5"/><path d="M114.807,55.1H95.369V53.021h19.438Z" fill="#d1def5"/><path d="M114.807,61.907H95.369V59.827h19.438Z" fill="#d1def5"/><path d="M114.807,68.71H95.369V66.631h19.438Z" fill="#d1def5"/><path d="M114.807,75.516H95.369V73.437h19.438Z" fill="#d1def5"/><path d="M114.807,82.325H95.369V80.246h19.438Z" fill="#d1def5"/><path d="M114.807,89.131H95.369V87.052h19.438Z" fill="#d1def5"/><path d="M114.807,95.938H95.369V93.858h19.438Z" fill="#d1def5"/><path d="M114.807,102.741H95.369v-2.079h19.438Z" fill="#d1def5"/><path d="M114.807,109.548H95.369v-2.08h19.438Z" fill="#d1def5"/><path d="M114.807,116.354H95.369v-2.08h19.438Z" fill="#d1def5"/><path d="M114.807,123.16H95.369v-2.079h19.438Z" fill="#d1def5"/><path d="M80.016,71.232h-8.3V54.406h8.3Z" fill="#d1def5"/><path d="M80.016,91.929h-8.3V75.1h8.3Z" fill="#d1def5"/><path d="M80.016,112.63h-8.3V95.8h8.3Z" fill="#d1def5"/><path d="M80.016,125.563h-8.3V115.314h8.3Z" fill="#d1def5"/><path d="M31.226,41.942h-3.89V39.833h3.89Z" fill="#d1def5"/><path d="M57.387,44.6H51.976V38.435l5.411,2.539Z" fill="#d1def5"/><path d="M24.025,39.836v2.109H20.4a20.587,20.587,0,0,1,.378-2.109Z" fill="#d1def5"/><path d="M31.226,47.489h-3.89V45.38h3.89Z" fill="#d1def5"/><path d="M24.025,45.38v2.109H20.442a20.407,20.407,0,0,1-.19-2.109Z" fill="#d1def5"/><path d="M31.226,53.033h-3.89V50.924h3.89Z" fill="#d1def5"/><path d="M24.025,50.924v2.107H22.049a19.536,19.536,0,0,1-.81-2.107Z" fill="#d1def5"/><path d="M31.226,58.58h-3.89V56.471h3.89Z" fill="#d1def5"/><path d="M31.229,62.018V62.8q-.679-.361-1.324-.766l-.032-.02Z" fill="#d1def5"/><path d="M57.384,49.47H51.973V46.435h5.411Z" fill="#d1def5"/><path d="M57.387,54.658H55.4V51.623h1.988Z" fill="#d1def5"/><path d="M53.961,54.658H51.973V51.623h1.988Z" fill="#d1def5"/><path d="M57.384,60.654H51.973V57.619h5.411Z" fill="#d1def5"/><path d="M55.4,62.808h1.988V65.2H55.4Z" fill="#d1def5"/><path d="M51.976,62.808h1.988V65.2H51.976Z" fill="#d1def5"/><path d="M57.384,94.029H51.973V90.993h5.411Z" fill="#d1def5"/><path d="M57.387,99.22H55.4V96.185h1.988Z" fill="#d1def5"/><path d="M53.961,99.22H51.973V96.185h1.988Z" fill="#d1def5"/><path d="M57.384,105.124H51.973v-3.035h5.411Z" fill="#d1def5"/><path d="M57.387,110.316H55.4V107.28h1.988Z" fill="#d1def5"/><path d="M53.961,110.316H51.973V107.28h1.988Z" fill="#d1def5"/><path d="M57.384,116.22H51.973v-3.035h5.411Z" fill="#d1def5"/><path d="M57.387,121.411H55.4v-3.035h1.988Z" fill="#d1def5"/><path d="M53.961,121.411H51.973v-3.035h1.988Z" fill="#d1def5"/><path d="M136.5,104.648V127.3a2.065,2.065,0,0,1-2.06,2.062L121.061,110.3l-6.253-8.908-.517-.741-3.316-4.727-1.46-2.079L106.2,89.129l-1.457-2.079-3.317-4.724-1.464-2.082-.183-.262L97.8,77.159l-1.148-1.64L95.377,73.7,87.183,62.037,81.3,53.663l-1.815-2.586-4.9-6.977-1.837-2.62-5.6-7.977-1.385-1.976L60.4,23.9H79.818l5.359,7.633,1.381,1.976,1.534,2.183,7.392,10.528L96.94,48.3l.854,1.218,1.976,2.825.482.684,1.462,2.079,3.316,4.727,1.462,2.079,3.317,4.727,1.462,2.079,3.314,4.727.22.309,6.256,8.9Z" fill="#fff" opacity="0.51"/><path d="M130.808,129.359h-9.291l-.456-.647-8.674-12.358-1.462-2.08-3.319-4.726-1.457-2.08-3.319-4.727-1.462-2.079-1.593-2.27-1.726-2.457-.254-.365-1.2-1.714-9.409-13.4L81.3,72.074l-1.284-1.827-8.3-11.819-1.59-2.265-11.2-15.956-1.983-2.825L54.218,33.5l-1.381-1.968L47.476,23.9h9.291l.175.247,1.983,2.823,3.2,4.564L63.511,33.5l6.769,9.646,1.835,2.61,3.813,5.433,2.255,3.213,1.833,2.605,1.284,1.83,5.883,8.382,9.14,13.02,1.462,2.082.01.01,1.981,2.825,1.329,1.889,1.459,2.079,3.319,4.727,1.457,2.079,3.32,4.727,1.462,2.079,8.94,12.739Z" fill="#fff" opacity="0.51"/><path d="M114.766,129.359h-5.742l-4.349-6.2-1.46-2.079L99.9,116.354l-.121-.168-1.339-1.912-.645-.913L87.173,98.249,81.3,89.867l-1.284-1.83-8.3-11.817-1.59-2.267L58.925,58l-.575-.818-1.41-2.008-.361-.516L55.4,52.976l-2.47-3.507L51.966,48.1l-1.072-1.529L45.37,38.7l-3.653-5.2-1.381-1.976-4.86-6.915A20.615,20.615,0,0,1,40.72,23.9l5.359,7.631,1.38,1.976L49.773,36.8l1.121,1.6,1.072,1.526,3.285,4.692,1.284,1.83.4.563.447.632.963,1.376.575.815,11.2,15.956,1.59,2.267,2.237,3.188,2.717,3.875L80,79.878l1.284,1.827,5.883,8.384,8.209,11.641.706,1.01,1.716,2.445,1.605,2.282.378.541,1.081,1.539,3.319,4.726,1.457,2.08,3.32,4.727,1.459,2.079Z" fill="#fff" opacity="0.51"/><path d="M137.886,31.535v1.976H23.438a20.155,20.155,0,0,1,1.415-1.976Z" fill="#6e8ec8"/><path d="M58.35,89.178a4.913,4.913,0,0,0,.575-.047v40.228H56.95V89.215h.067c.217,0,.437-.015.654-.015A5.664,5.664,0,0,0,58.35,89.178Z" fill="#6e8ec8"/><path d="M58.926,23.939V65.263c-.19-.02-.383-.037-.576-.045s-.454-.022-.684-.022H56.94V23.909Z" fill="#6e8ec8"/><path d="M97.792,23.9h1.983V129.359H97.792Z" fill="#6e8ec8"/><path d="M224.233,223.7H87.19c0-20.295,17.485-37.7,42.332-45q3.471-1.026,7.129-1.778a94.985,94.985,0,0,1,19.056-1.9C193.553,175.022,224.233,196.816,224.233,223.7Z" fill="#6e8ec8"/><path d="M210.576,147.481h3.366V173.4h-3.366Z" fill="#92b0e7"/><path d="M210.576,171.273h3.367V173.4h-3.367Z" fill="#6e8ec8"/><path d="M213.94,147.486V152.4a6.912,6.912,0,0,1-3.364,2.06v-6.974Z" fill="#6e8ec8"/><path d="M227.965,220.075H196.581c-.906,0-1.588-1.1-1.415-2.28l5.91-40.18c.234-1.606,1.3-2.764,2.529-2.764h17.346c1.235,0,2.292,1.158,2.529,2.764l5.9,40.18C229.553,218.976,228.871,220.075,227.965,220.075Z" fill="#6e8ec8"/><path d="M227.965,220.075h-8.711l-6.643-45.236h8.335c1.235,0,2.292,1.158,2.526,2.766l5.9,40.193C229.55,218.978,228.871,220.075,227.965,220.075Z" fill="#547dba"/><path d="M226.955,220.075l-.136,1.064-.378,2.884H221.3l-.376-2.884-.138-1.064Z" fill="#547dba"/><path d="M205.741,220.075l-.141,1.064-.375,2.884h-5.137l-.378-2.884-.138-1.064Z" fill="#6e8ec8"/><path d="M203.024,101.3a3.453,3.453,0,1,1,6.891.468l-3.958,58.213a3.454,3.454,0,0,1-6.892-.469Z" fill="#e9f1ff"/><path d="M215.71,114.924v31.423a6.914,6.914,0,0,1-6.914,6.915h-4.305l4.314-45.246a6.915,6.915,0,0,1,6.915,6.915Z" fill="#92b0e7"/><path d="M211.6,108.607l-3.033,44.647h-4.075l4.314-45.238A6.86,6.86,0,0,1,211.6,108.607Z" fill="#6e8ec8"/><path d="M204.957,99.242a3.462,3.462,0,1,1,6.907.483L207.4,163.5a3.462,3.462,0,0,1-6.908-.483Z" fill="#92b0e7"/><path d="M204.533,172.829h15.428a2.007,2.007,0,0,1,2.008,2.007H202.535A2.007,2.007,0,0,1,204.533,172.829Z" fill="#92b0e7"/><path d="M205.741,220.075l-.141,1.064h-5.89l-.138-1.064Z" fill="#547dba"/><path d="M226.955,220.075l-.136,1.064h-5.893l-.138-1.064Z" fill="#416fa5"/><ellipse cx="8.819" cy="8.819" rx="8.819" ry="8.819" transform="translate(69.209 147.318)" fill="#6feaf7"/><path d="M96.971,166.772a6.5,6.5,0,0,1-9.194,9.194L73.765,161.954a6.5,6.5,0,0,1,9.194-9.194Z" fill="#8c285c"/><path d="M71.953,158.421a6.5,6.5,0,0,1,10.8-2.635L96.762,169.8a6.467,6.467,0,0,1,1.825,3.522,6.488,6.488,0,0,0-1.6-6.557L82.975,152.748a6.5,6.5,0,0,0-11.009,5.68Z" fill="#72194c"/><path d="M119.332,171.016c3.857-1.6,5.559-6.337,3.8-10.575a8.292,8.292,0,0,0-7.344-5.3,6.882,6.882,0,0,0-2.816.529l-21.3,8.834c-3.857,1.6-5.559,6.337-3.8,10.574s6.315,6.377,10.172,4.777Z" fill="#ea7d7d"/><path d="M111.908,171.614c-5.307-3.72-6.309-9.348-4.388-13.689L119,153.447a5.109,5.109,0,0,1,5.327,1.013,10.469,10.469,0,0,1,2.645,3.892c2.914,7.465-3.267,16.235-13.178,14.076A5.18,5.18,0,0,1,111.908,171.614Z" fill="#ea7d7d"/><ellipse cx="4.324" cy="4.324" rx="4.324" ry="4.324" transform="translate(75.637 125.19)" fill="#54285b"/><path d="M132.053,214.271a61.375,61.375,0,0,1-.722,9.429H23.869a61.349,61.349,0,0,1-.721-9.429c0-21.955,11.41-41.065,28.247-50.945a51.529,51.529,0,0,1,26.2-7.162c17.514,0,33.093,8.826,43.063,22.537A60.394,60.394,0,0,1,132.053,214.271Z" fill="#6e8ec8"/><path d="M156.756,223.7H87.19c0-20.295,13.83-37.7,33.471-45a57.241,57.241,0,0,1,5.638-1.778C142.727,188.288,154.02,204.857,156.756,223.7Z" fill="#5a7daf"/><path d="M199.914,204.589l-2.21,17.088-87.5-11.317a8.3,8.3,0,0,1-7.17-9.3l1.146-8.854Z" fill="#2b234c"/><path d="M198.2,217.858l-.494,3.821L101.973,209.3l.494-3.821Z" fill="#1d183a"/><path d="M205.875,207.577l-1.647,12.733-6.24-.807,1.647-12.733Z" fill="#f0a284"/><path d="M201.642,207.03l-1.647,12.734-2.01-.261,1.647-12.733Z" fill="#ea7d7d"/><path d="M200.276,219.986l2.5-6.377a7.345,7.345,0,0,1,9.479-10.419l-6.4,13.222-3.191,6.6-1.481-.718A1.822,1.822,0,0,1,200.276,219.986Z" fill="#2b234c"/><path d="M202.148,207.3a7.343,7.343,0,0,1,9.443-2.746l.66-1.366a7.348,7.348,0,0,0-9.812,3.413,6.774,6.774,0,0,0-.291.7Z" fill="#3d325d"/><path d="M203.032,224.712a1.13,1.13,0,0,0,1.442-.4.719.719,0,0,0,.076-.128l9.54-19.715a1.381,1.381,0,0,0,.07-.168,1.728,1.728,0,0,0-3.1-1.494,1.775,1.775,0,0,0-.123.247l-.329.778-.928,2.223-.432,1.034-.929,2.223-.435,1.035-.928,2.222-.432,1.03-.931,2.223-.433,1.035-.931,2.222-.424,1.013-.931,2.222-.4.951a.7.7,0,0,0-.03.084,1.146,1.146,0,0,0,0,.758A1.121,1.121,0,0,0,203.032,224.712Z" fill="#3d325d"/><path d="M210.621,203.829l3.062,1.482.494-1.005-3.1-1.5a1.676,1.676,0,0,0-.124.247Z" fill="#2b234c"/><path d="M209.26,207.082l2.889,1.4.487-1.008-2.944-1.425Z" fill="#2b234c"/><path d="M207.9,210.332l2.719,1.314.489-1-2.774-1.344Z" fill="#2b234c"/><path d="M206.536,213.579l2.549,1.235.486-1-2.6-1.259Z" fill="#2b234c"/><path d="M205.173,216.832l2.378,1.151.487-1.008L205.6,215.8Z" fill="#2b234c"/><path d="M203.81,220.082l2.207,1.067.489-1.005-2.264-1.1Z" fill="#2b234c"/><path d="M202.525,223.369l1.959.948.494-1.005-2.1-1.012-.4.95Z" fill="#2b234c"/><path d="M114.835,181.376l2.968,2.738a13.139,13.139,0,0,1,.745,18.566L112.9,208.8a4.149,4.149,0,0,1-5.863.236L97.461,200.2Z" fill="#3d325d"/><path d="M97.458,200.21,84.144,187.924l17.377-18.832,13.315,12.286Z" fill="#3cc3da"/><path d="M96.855,160.86l9.028,15.636-8.57,4.948a15.732,15.732,0,0,1-21.489-5.758l-11.3-19.572a2.672,2.672,0,0,1,.978-3.65,22.968,22.968,0,0,1,31.374,8.407Z" fill="#3cc3da"/><path d="M76,141.312v9.4a5.82,5.82,0,0,1-.052.753,5.458,5.458,0,0,1-10.866-.753v-9.4a5.458,5.458,0,1,1,10.916,0Z" fill="#f0a284"/><path d="M76,141.312v9.4a5.8,5.8,0,0,1-.052.753,13.364,13.364,0,0,1-10.866-5.344v-4.808a5.458,5.458,0,1,1,10.916,0Z" fill="#ea7d7d"/><path d="M84.145,187.925l-9.323-13.978,12.8-9.747,19.621,19.868Z" fill="#3cc3da"/><path d="M76,150.217v.494c0,.247-.057.506-.052.753a5.419,5.419,0,0,1-5.594,5.238c-2.964-.1-5.27-3.154-5.27-6.115v-.37Z" fill="#3cc3da"/><path d="M126.2,170.625a8.615,8.615,0,0,1,12.183,12.184l-24.8,24.795A8.615,8.615,0,0,1,101.4,195.42Z" fill="#3d325d"/><path d="M113.358,223.7H23.869a61.149,61.149,0,0,1-.716-8.626v-.805A60.127,60.127,0,0,1,36.3,176.412,55.868,55.868,0,0,1,47.9,165.563q1.7-1.191,3.492-2.237C84.147,170.591,109.1,194.408,113.358,223.7Z" fill="#92b0e7"/><path d="M84.286,223.7H23.637q-.444-4.215-.494-8.626v-.805a60.129,60.129,0,0,1,13.143-37.859C67.863,186.56,82.33,203.842,84.286,223.7Z" fill="#6e8ec8"/><path d="M92.6,163.88a.916.916,0,0,1,.174-1.284l16.408-12.481a.916.916,0,1,1,1.109,1.458L93.881,164.055A.916.916,0,0,1,92.6,163.88Z" fill="#3d325d"/><path d="M106.646,152.309a.7.7,0,0,1,.134-.986l1.1-.833a.7.7,0,1,1,.852,1.12l-1.094.833A.705.705,0,0,1,106.646,152.309Z" fill="#3d325d"/><path d="M104.179,154.184a.7.7,0,0,1,.134-.986l1.095-.833a.7.7,0,1,1,.852,1.12l-1.094.833A.705.705,0,0,1,104.179,154.184Z" fill="#3d325d"/><path d="M101.715,156.059a.7.7,0,0,1,.134-.986l1.1-.833a.7.7,0,1,1,.852,1.12l-1.094.833A.7.7,0,0,1,101.715,156.059Z" fill="#3d325d"/><path d="M99.25,157.936a.7.7,0,0,1,.134-.986l1.095-.833a.7.7,0,0,1,.852,1.121l-1.094.832A.7.7,0,0,1,99.25,157.936Z" fill="#3d325d"/><path d="M94.655,161.43a.7.7,0,0,1,.134-.987l3.224-2.452a.7.7,0,1,1,.852,1.12l-3.223,2.453A.7.7,0,0,1,94.655,161.43Z" fill="#3d325d"/><ellipse cx="8.819" cy="8.819" rx="8.819" ry="8.819" transform="translate(56.266 152.086)" fill="#6feaf7"/><path d="M80.225,176.482a6.5,6.5,0,1,1-11.431,6.2L59.35,165.257a6.5,6.5,0,1,1,11.431-6.2Z" fill="#3cc3da"/><path d="M58.612,161.365a6.5,6.5,0,0,1,11.1.548l9.444,17.43a6.446,6.446,0,0,1,.741,3.892,6.5,6.5,0,0,0,.333-6.742l-9.449-17.43a6.5,6.5,0,0,0-12.168,2.3Z" fill="#6feaf7"/><path d="M100.148,175.639c3.524-2.245,4.384-7.2,1.919-11.074a8.326,8.326,0,0,0-8.15-3.951,6.92,6.92,0,0,0-2.684,1.008L71.795,174c-3.524,2.245-4.381,7.2-1.916,11.074s7.32,5.186,10.844,2.949Z" fill="#f0a284"/><path d="M80.024,184.527A2.039,2.039,0,1,1,77.9,181.05l8.831-5.408a2.039,2.039,0,1,1,2.129,3.477Z" fill="#fcb798"/><path d="M92.934,177.514c-5.873-2.747-7.829-8.118-6.688-12.726L96.779,158.4a5.108,5.108,0,0,1,5.421.079,10.494,10.494,0,0,1,3.277,3.379c4.159,6.85-.417,16.546-10.55,16.144A5.172,5.172,0,0,1,92.934,177.514Z" fill="#f0a284"/><path d="M95.889,156.569a2.345,2.345,0,1,1,4.126,2.229l-3.681,6.814a2.345,2.345,0,0,1-4.126-2.229Z" fill="#f0a284"/><path d="M106.156,155.318a2.345,2.345,0,0,1,2.345,4.062l-6.707,3.872a2.345,2.345,0,1,1-2.345-4.062Z" fill="#f0a284"/><path d="M106.477,160.234a2.344,2.344,0,1,1,2.344,4.061l-6.707,3.873a2.345,2.345,0,0,1-2.344-4.062Z" fill="#f0a284"/><path d="M105.651,164.527A2.345,2.345,0,1,1,108,168.588l-6.707,3.873a2.345,2.345,0,0,1-2.345-4.062Z" fill="#f0a284"/><ellipse cx="2.746" cy="3.252" rx="2.746" ry="3.252" transform="translate(96.474 166.26)" fill="#fcb798"/><path d="M74.314,149.125a13.378,13.378,0,0,1-14.146-12.572l-.353-5.841a7.3,7.3,0,0,1,6.853-7.7l3.951-.232,2.023-.118.576-.035.872-.052a6.692,6.692,0,0,1,7.088,6.295l.086,1.531.025.388v.124l.059.965.025.437.494,8.3A8.048,8.048,0,0,1,74.314,149.125Z" fill="#f0a284"/><path d="M81.268,130.4l.025.388c-2.25.82-12.936.551-16.329-1.277a7.574,7.574,0,0,1-1.976-5.243,5.017,5.017,0,0,1,.319-1.511l4.156-.106,2.978-.077c.948-.025,1.879,0,2.783.052a28.1,28.1,0,0,1,4.085.553,6.713,6.713,0,0,1,3.875,5.68Z" fill="#ea7d7d"/><path d="M60.467,127.749h2.682v6.667a3.834,3.834,0,0,1-3.828,3.843h-.289v-9.066a1.444,1.444,0,0,1,1.435-1.444Z" fill="#64356a"/><ellipse cx="4.932" cy="4.932" rx="4.932" ry="4.932" transform="translate(56.683 120.959)" fill="#64356a"/><path d="M58.214,126.341a4.941,4.941,0,0,0,2.339,4.2v7.513a3.787,3.787,0,0,1-1.235.207h-.286v-8.172a4.939,4.939,0,0,1,4.719-8.643,4.737,4.737,0,0,0-.6-.035A4.939,4.939,0,0,0,58.214,126.341Z" fill="#54285b"/><ellipse cx="0.882" cy="0.882" rx="0.882" ry="0.882" transform="translate(68.515 133.838)" fill="#151d3a"/><ellipse cx="0.882" cy="0.882" rx="0.882" ry="0.882" transform="translate(76.601 133.838)" fill="#151d3a"/><path d="M178.467,210.8l-8.676,9.464-4.638-4.252,8.675-9.464Z" fill="#f0a284"/><path d="M175.323,207.912l-8.676,9.464-1.494-1.37,8.676-9.464Z" fill="#ea7d7d"/><path d="M166.748,217.751l5.713-3.776a7.342,7.342,0,0,1,13.745-3.068l-12.842,7.133-6.4,3.556-.8-1.44A1.821,1.821,0,0,1,166.748,217.751Z" fill="#2b234c"/><path d="M175.575,208.455a7.342,7.342,0,0,1,9.3,3.188l1.326-.741a7.343,7.343,0,0,0-9.987-2.854,6.5,6.5,0,0,0-.642.407Z" fill="#3d325d"/><path d="M166.279,223.2a1.13,1.13,0,0,0,1.41.494,1.081,1.081,0,0,0,.134-.061L186.972,213a1.111,1.111,0,0,0,.153-.1,1.729,1.729,0,0,0-1.662-3,1.656,1.656,0,0,0-.247.129l-.714.447-2.037,1.279-.948.6-2.035,1.277-.949.6-2.037,1.28-.948.6-2.038,1.277-.948.6-2.035,1.277-.948.6-2.038,1.279-.874.549-.072.052a1.133,1.133,0,0,0-.318,1.462Z" fill="#3d325d"/><path d="M184.505,210.492l1.649,2.964.988-.543-1.669-3.006a1.608,1.608,0,0,0-.247.129Z" fill="#2b234c"/><path d="M181.519,212.369l1.558,2.806.978-.543-1.588-2.86Z" fill="#2b234c"/><path d="M178.536,214.241,180,216.884l.98-.544-1.5-2.694Z" fill="#2b234c"/><path d="M175.55,216.116l1.375,2.474.976-.541-1.4-2.528Z" fill="#2b234c"/><path d="M172.564,217.99l1.284,2.309.978-.543-1.314-2.363Z" fill="#2b234c"/><path d="M169.581,219.862l1.19,2.146.978-.543-1.22-2.2Z" fill="#2b234c"/><path d="M166.637,221.82l1.057,1.9.988-.544-1.129-2.032-.874.548Z" fill="#2b234c"/><path d="M175.688,206.627l-12,12.365-37.241-36.139a8.614,8.614,0,1,1,12-12.362l37.239,36.138Z" fill="#3d325d"/><path d="M69.275,116.863h15.01v3.457a9.175,9.175,0,0,1-9.175,9.175H60.1v-3.458A9.174,9.174,0,0,1,69.275,116.863Z" fill="#64356a"/><path d="M84.283,116.875v3.457a9.168,9.168,0,0,1-9.172,9.172H72.731a9.172,9.172,0,0,0,9.172-9.172v-3.457Z" fill="#7d5384"/><path d="M68.542,119.875h4.917a1.482,1.482,0,0,1,1.482,1.482,3.907,3.907,0,0,1-3.912,3.9H66.112a1.482,1.482,0,0,1-1.482-1.482,3.907,3.907,0,0,1,3.907-3.907Z" fill="#7d5384"/><ellipse cx="3.403" cy="3.403" rx="3.403" ry="3.403" transform="translate(57.737 134.254)" fill="#f0a284"/><path d="M60.111,137.454a1.481,1.481,0,0,0,1.055,1.235.42.42,0,0,0,.519-.462l-.227-1.9a.427.427,0,0,0-.652-.309A1.482,1.482,0,0,0,60.111,137.454Z" fill="#ea7d7d"/><path d="M75.719,138.313a2.178,2.178,0,0,1-.593,1.566c-.049.052-.1.1-.151.146a2.165,2.165,0,0,1-1.371.546h-.089a2.186,2.186,0,0,1-2.242-1.929c0-.059-.012-.121-.015-.18a.424.424,0,0,1,.114-.3.413.413,0,0,1,.3-.133l3.606-.121a.419.419,0,0,1,.445.409Z" fill="#962f4a"/><path d="M73.555,140.235a1.53,1.53,0,0,1-.022.338h-.012a2.18,2.18,0,0,1-2.24-1.929,1.834,1.834,0,0,1,.482-.086,1.729,1.729,0,0,1,1.793,1.677Z" fill="#e1617f"/><path d="M75.2,137.908c0,.428-.652.793-1.465.82s-1.482-.291-1.514-.721Z" fill="#fff"/></g></svg>