<svg xmlns="http://www.w3.org/2000/svg" xmlns:xlink="http://www.w3.org/1999/xlink" width="320" height="234.75" viewBox="0 0 320 234.75"><defs><clipPath id="a"><rect width="320" height="234.75" transform="translate(0.5 0.925)" fill="#fff"/></clipPath></defs><g transform="translate(-0.5 -0.925)" clip-path="url(#a)"><path d="M42.849,119.857c-4.209,1.272-8.148,4.35-9.2,8.621-1.2,4.909,1.57,9.857,1.971,14.9,1.294,16.513-22.2,28.163-18.845,44.383,1.331,6.45,6.709,11.194,12.008,15.113,8.49,6.259,17.909,11.788,28.34,13.349,15.832,2.372,32.375-4.6,47.764-.194C117.3,219.58,126.8,230,139.125,233.842c9.383,2.927,19.492,1.774,29.24.588,5.257-.637,10.763-1.373,15-4.527,7.885-5.871,8.381-17.466,13.661-25.775,8.154-12.813,26.033-15.329,41.025-12.839s29.549,8.621,44.737,8.122a20.433,20.433,0,0,0,9.4-2.142c3.443-1.936,5.769-5.346,7.826-8.72a141.093,141.093,0,0,0,20.458-70.108c.089-4.254-.062-8.693-2.063-12.448-2.53-4.751-7.586-7.593-12.619-9.5-12.087-4.6-25.439-5.352-37.283-10.54-11.424-5-20.675-13.779-30.624-21.3a163.113,163.113,0,0,0-67.183-29.92c-5.714-1.1-11.644-1.892-17.321-.618-6.541,1.469-12.179,5.546-17.248,9.935-13.487,11.676-24.3,26.083-36.725,38.88a209.074,209.074,0,0,1-27.9,24.059c-4.6,3.315-9.488,7.251-14.614,9.7C52.209,118.928,47.81,118.363,42.849,119.857Z" fill="#6d61f2" opacity="0.2"/><path d="M102.966,16.084S90.268,32.948,99.352,52.6s-15.832,51.239-15.832,51.239" fill="none" stroke="#535461" stroke-miterlimit="10" stroke-width="2"/><path d="M108.659,9.773c-1.008,4.34-5.835,6.926-5.835,6.926s-3.187-4.452-2.178-8.792S104.26.465,106.481.981,109.668,5.433,108.659,9.773Z" fill="#8ed16f"/><path d="M105.418,9.017c.317-1.363.16-2.563-.351-2.682s-1.182.889-1.5,2.252-.16,2.564.351,2.682S105.1,10.379,105.418,9.017Z" fill="#8ed16f"/><path d="M105.418,9.017c.317-1.363.16-2.563-.351-2.682s-1.182.889-1.5,2.252-.16,2.564.351,2.682S105.1,10.379,105.418,9.017Z" opacity="0.3"/><path d="M106.465,29.055c-4.193,1.511-8.986-1.137-8.986-1.137s2-5.1,6.2-6.6,8.213-.986,8.985,1.137S110.657,27.544,106.465,29.055Z" fill="#8ed16f"/><path d="M105.287,25.709c1.315-.476,2.237-1.261,2.058-1.754s-1.389-.507-2.7-.031-2.236,1.261-2.058,1.754S103.972,26.184,105.287,25.709Z" fill="#8ed16f"/><path d="M105.287,25.709c1.315-.476,2.237-1.261,2.058-1.754s-1.389-.507-2.7-.031-2.236,1.261-2.058,1.754S103.972,26.184,105.287,25.709Z" opacity="0.3"/><path d="M105.489,44.421C101.3,45.932,96.5,43.284,96.5,43.284s2-5.1,6.2-6.6,8.213-.986,8.985,1.137S109.681,42.913,105.489,44.421Z" fill="#8ed16f"/><path d="M104.36,41.307c1.316-.474,2.239-1.258,2.062-1.751s-1.389-.509-2.7-.035-2.239,1.258-2.062,1.751S103.044,41.781,104.36,41.307Z" fill="#8ed16f"/><path d="M104.36,41.307c1.316-.474,2.239-1.258,2.062-1.751s-1.389-.509-2.7-.035-2.239,1.258-2.062,1.751S103.044,41.781,104.36,41.307Z" opacity="0.3"/><path d="M110.387,62.448c-4.192,1.511-8.985-1.137-8.985-1.137s2-5.1,6.2-6.6,8.214-.986,8.986,1.137S114.58,60.947,110.387,62.448Z" fill="#8ed16f"/><path d="M109.259,59.342c1.317-.474,2.24-1.258,2.062-1.751s-1.389-.509-2.705-.035-2.239,1.258-2.062,1.751S107.943,59.816,109.259,59.342Z" fill="#8ed16f"/><path d="M109.259,59.342c1.317-.474,2.24-1.258,2.062-1.751s-1.389-.509-2.705-.035-2.239,1.258-2.062,1.751S107.943,59.816,109.259,59.342Z" opacity="0.3"/><path d="M107.2,78.934c-4.193,1.511-8.986-1.137-8.986-1.137s2-5.1,6.2-6.6,8.213-.986,8.985,1.137S111.4,77.426,107.2,78.934Z" fill="#8ed16f"/><path d="M106.081,75.548c1.315-.476,2.237-1.261,2.059-1.754s-1.389-.507-2.7-.031-2.237,1.261-2.058,1.754S104.766,76.024,106.081,75.548Z" fill="#8ed16f"/><path d="M106.081,75.548c1.315-.476,2.237-1.261,2.059-1.754s-1.389-.507-2.7-.031-2.237,1.261-2.058,1.754S104.766,76.024,106.081,75.548Z" opacity="0.3"/><path d="M87.537,33.421c3.095,3.207,8.565,2.957,8.565,2.957s.45-5.457-2.645-8.664-6.929-4.527-8.565-2.957S84.442,30.215,87.537,33.421Z" fill="#8ed16f"/><path d="M92.375,32.283c.377-.364-.1-1.475-1.076-2.482s-2.065-1.527-2.442-1.163.1,1.475,1.076,2.482S92,32.648,92.375,32.283Z" fill="#8ed16f"/><path d="M92.375,32.283c.377-.364-.1-1.475-1.076-2.482s-2.065-1.527-2.442-1.163.1,1.475,1.076,2.482S92,32.648,92.375,32.283Z" opacity="0.3"/><path d="M85.76,84.342c3.095,3.206,8.565,2.957,8.565,2.957s.45-5.457-2.645-8.664-6.929-4.527-8.565-2.957S82.665,81.135,85.76,84.342Z" fill="#8ed16f"/><path d="M90.593,83.209c.377-.364-.1-1.475-1.076-2.482s-2.065-1.527-2.442-1.163.1,1.475,1.076,2.482S90.215,83.573,90.593,83.209Z" fill="#8ed16f"/><path d="M90.593,83.209c.377-.364-.1-1.475-1.076-2.482s-2.065-1.527-2.442-1.163.1,1.475,1.076,2.482S90.215,83.573,90.593,83.209Z" opacity="0.3"/><path d="M89.864,51.419c3.988,1.991,9.058-.079,9.058-.079s-1.4-5.293-5.382-7.284-8.043-1.971-9.058.079S85.875,49.428,89.864,51.419Z" fill="#8ed16f"/><path d="M94.032,48.723c.234-.469-.591-1.356-1.843-1.981s-2.456-.751-2.69-.281.591,1.356,1.842,1.981S93.8,49.192,94.032,48.723Z" fill="#8ed16f"/><path d="M94.032,48.723c.234-.469-.591-1.356-1.843-1.981s-2.456-.751-2.69-.281.591,1.356,1.842,1.981S93.8,49.192,94.032,48.723Z" opacity="0.3"/><path d="M91.536,69.347c3.989,1.991,9.058-.079,9.058-.079s-1.4-5.293-5.382-7.284-8.043-1.971-9.058.079S87.564,67.376,91.536,69.347Z" fill="#8ed16f"/><path d="M95.706,66.654c.234-.469-.591-1.356-1.843-1.981s-2.456-.751-2.69-.281.591,1.356,1.843,1.981S95.472,67.123,95.706,66.654Z" fill="#8ed16f"/><path d="M95.706,66.654c.234-.469-.591-1.356-1.843-1.981s-2.456-.751-2.69-.281.591,1.356,1.843,1.981S95.472,67.123,95.706,66.654Z" opacity="0.3"/><path d="M41.808,52.332S65,75.524,51.907,109.939,74.35,201.582,74.35,201.582s-.381-.056-1.087-.18C25.624,192.994,1.969,138.515,28.449,98.046,38.282,83,46.381,65.349,41.808,52.332Z" fill="#8ed16f"/><path d="M.5,146.134s26.464-4.215,28.876,19.5,50.888,27.006,50.888,27.006-.329.216-.91.6C39.327,219.531,1.065,209.983,6.831,175.1,8.98,162.121,8.8,149.094.5,146.134Z" fill="#8ed16f"/><g opacity="0.3"><path d="M.5,146.134s26.464-4.215,28.876,19.5,50.888,27.006,50.888,27.006-.329.216-.91.6C39.327,219.531,1.065,209.983,6.831,175.1,8.98,162.121,8.8,149.094.5,146.134Z" fill="#fff" opacity="0.3"/></g><path d="M35.109,145.842c4.019,0,7.277-8.5,7.277-18.987s-3.258-18.986-7.277-18.986-7.277,8.5-7.277,18.986S31.09,145.842,35.109,145.842Z" fill="#8ed16f"/><path d="M35.109,145.842c4.019,0,7.277-8.5,7.277-18.987s-3.258-18.986-7.277-18.986-7.277,8.5-7.277,18.986S31.09,145.842,35.109,145.842Z" opacity="0.3"/><path d="M34.444,195.81c1.916-1.915.012-6.924-4.251-11.188S20.92,178.455,19,180.371s-.012,6.924,4.251,11.188S32.528,197.726,34.444,195.81Z" fill="#8ed16f"/><path d="M34.444,195.81c1.916-1.915.012-6.924-4.251-11.188S20.92,178.455,19,180.371s-.012,6.924,4.251,11.188S32.528,197.726,34.444,195.81Z" opacity="0.3"/><path d="M238.328,88.14H66.061a7.849,7.849,0,0,0-7.849,7.849V196.96a7.849,7.849,0,0,0,7.849,7.849H238.328a7.849,7.849,0,0,0,7.849-7.849V95.989a7.849,7.849,0,0,0-7.849-7.849Z" fill="#fff"/><path d="M235.812,89.513H68.574a8.151,8.151,0,0,0-8.151,8.151v97.62a8.151,8.151,0,0,0,8.151,8.151H235.812a8.151,8.151,0,0,0,8.151-8.151V97.664A8.151,8.151,0,0,0,235.812,89.513Z" fill="#6d61f2"/><path d="M243.963,109.449H60.423v20.886h183.54Z" fill="#6d61f2"/><path d="M243.963,109.449H60.423v20.886h183.54Z" opacity="0.3"/><path d="M226.56,145.842H77.829v10.126H226.56Z" fill="#d6d6e3"/><path d="M90.169,195.843a14.558,14.558,0,1,0-14.558-14.558A14.558,14.558,0,0,0,90.169,195.843Z" fill="#6d61f2"/><path d="M90.169,195.843a14.558,14.558,0,1,0-14.558-14.558A14.558,14.558,0,0,0,90.169,195.843Z" opacity="0.3"/><path d="M233.528,61.423a3.186,3.186,0,0,0,1.4,1.774c3.02,1.994,9.584,1.57,10.372,1.57.168,0,.388.3.631.8a55.487,55.487,0,0,1,3.079,10.98c.161,1.909,1.935,10.842,4.839,14.17.089.1.177.2.263.286,2.848,2.862,6.19-.286,6.19-.286l.479-1.666c-.134.657-.286,1.423-.437,2.28-.075.43-.151.887-.223,1.357a52,52,0,0,0-.68,8.007,28.685,28.685,0,0,0,.125,2.917c.026.27.055.536.092.795a27.911,27.911,0,0,1,.216,3.562,96.775,96.775,0,0,1-1.83,15.865l.069-.023c-.042.22-.069.329-.069.329l.106-.033q-.077.489-.145,1c-.611,4.435-.963,9.955-1.13,13.142a26.308,26.308,0,0,0,.223,5.033l3.207,22.574v10.513a18.546,18.546,0,0,0,.578,4.725c1.045,3.972.184,17.836-.3,24.414-.135,1.793-.24,3.049-.269,3.41v.108l.092-.036v.115a1.921,1.921,0,0,1,.427-.125c-1.272,1.972-3.575,5.231-5.346,5.779a5.62,5.62,0,0,0-2.671,1.771l-.046.063-.065.092a1.977,1.977,0,0,0-.385,1.005,1.2,1.2,0,0,1-.059-.194c-.135.733.306,1.4,1.689,1.728a11.347,11.347,0,0,0,2.447.2c4.8,0,13.31-1.475,14.249-3.062V210.89l.155.049v.049l.588.194,1.613-5.414c1.935-1.433.329-27.069,0-32.959-.3-5.369,3.026-26.724,3.614-30.486l-.079-.1.089-.549a2.374,2.374,0,0,1,.328.289,4.293,4.293,0,0,1,.5.743,9.889,9.889,0,0,1,.713,1.472c3.246,8.1,4.708,31.244,4.708,33.32v21.77a22.659,22.659,0,0,0,.887,6.35,27.247,27.247,0,0,1,.69,3.3c.069.437.128.871.184,1.285s.112.887.154,1.275a2.608,2.608,0,0,0,.033.292.569.569,0,0,1,0,.135c.089.857.135,1.419.135,1.419a.326.326,0,0,1,.066-.128l.016.207a.452.452,0,0,1,.128-.2,3.136,3.136,0,0,1,.434-.354v2.766l-.079-.059v.476c3.345,2.523,8.789,3.286,12.968,3.256a16.588,16.588,0,0,0,5.667-.71c1.091-.535.493-1.784-.5-2.74a3.752,3.752,0,0,0-2.4-1.242c-1.058.115-4.676-3.982-6.571-6.225l.213-.1.3-.131v-36.3s.486-14.332,1.935-28.5A50.424,50.424,0,0,0,294.66,122.2l-.046-.134.44.069c.467.072.717.115.717.115a2.7,2.7,0,0,0-.03-.329h.03s-.565-6.147-.572-13.868c0-8.752.739-19.423,3.8-25.462a17.966,17.966,0,0,0,2.3-8.424,8.81,8.81,0,0,0-1.574-5.388,4.269,4.269,0,0,0-1.81-1.432l-.063-.036h-.032a4.5,4.5,0,0,0-1.663-.328h-6.607a4.409,4.409,0,0,1-2.181-.575l-2.586-1.465a13.111,13.111,0,0,1-.8-6.4c0-.174.033-.348.05-.519l.187-.2c.144-.154.279-.329.411-.476a3.59,3.59,0,0,1-.03.388c-.033.207-.089.329-.177.355,1.412-.184,2.989-.463,3.857-1.554.036-.043.069-.089.1-.135a7.046,7.046,0,0,0,.635-1.314,3.762,3.762,0,0,1,.483-.881c.216-.283.5-.513.732-.782l.04-.046a5.675,5.675,0,0,0,.887-3.686c.016-3.128-.076-6.571-2.169-8.917-1.738-1.952-4.511-2.691-7.142-2.776s-5.257.388-7.885.4c-1.787,0-3.943-.03-4.928,1.449-.483.726-.542,1.676-1.068,2.372-.3.4-.766.746-.792,1.245a1.283,1.283,0,0,0,.171.657v.023a4.647,4.647,0,0,0,3.4,2.283,8.33,8.33,0,0,0-.657.907,8.63,8.63,0,0,0-1.315,4.6,5.3,5.3,0,0,0,.02.565,8.688,8.688,0,0,0,2.753,5.786c-.026.184-.052.368-.082.549l.059.053q.279.253.582.48l.072.056v.329a5.423,5.423,0,0,1-.02.572c-.019.187,0,.3-.019.453l-.043-.036-3.21-2.681-5.161-4.777s-12.9-9.393-13.553-4.928a3.216,3.216,0,0,0,.615,2.228c2.368,3.614,10.513,6.689,10.513,6.689A68.819,68.819,0,0,1,269.4,67.945c-.115.062-.23.122-.351.177-2.892,1.344-7.11.775-7.11.775-4.872.759-5.313,6.1-5.286,8.256V77.6l-6.466-15.182-.02-.046a3.193,3.193,0,0,0-2.418-1.9C243.431,59.747,232.625,58.233,233.528,61.423ZM260.6,208.938a2.763,2.763,0,0,1,.286-.052l-.03.046Z" fill="#fff"/><path d="M292.9,205.834s6.124,7.7,7.54,7.54,4.712,2.983,2.829,3.942-12.721,1.571-18.07-2.513v-6.154Z" fill="#aca9c9"/><path d="M261.957,206.3s-3.614,6.44-6.124,7.228-4.711,3.614-1.413,4.4,15.08-.943,16.178-2.829v-8.329Z" fill="#aca9c9"/><path d="M257.42,143.043l3.121,22.268v10.353a18.566,18.566,0,0,0,.565,4.658c1.019,3.92.181,17.594-.292,24.082-.155,2.116-.273,3.47-.273,3.47,2.04-.943,10.681,2.04,10.681,2.04l.874-2.973.7-2.366c1.886-1.412.329-26.7,0-32.525-.213-3.979,1.561-16.878,2.7-24.608.328-2.185.594-3.943.755-5,.1-.657.158-1.021.158-1.021a3.45,3.45,0,0,1,.848,1.021,9.873,9.873,0,0,1,.693,1.453c3.161,7.986,4.6,30.82,4.6,32.854v21.473a22.617,22.617,0,0,0,.864,6.266,32.932,32.932,0,0,1,.851,4.524c.223,1.705.328,3.078.328,3.078.158-.943,9.9-5.184,9.9-5.184V171.094s.47-14.128,1.886-28.117a50.175,50.175,0,0,0-1.807-18.917c-.391-1.338-.782-2.471-1.121-3.368-.575-1.528-.985-2.372-.985-2.372H260.377c-.539.1-.986,1.186-1.39,2.832-.263,1.1-.493,2.457-.693,3.942-.6,4.373-.936,9.817-1.1,12.965A26.211,26.211,0,0,0,257.42,143.043Z" fill="#618fd8"/><g opacity="0.1"><path d="M293.918,207.007V171.2s.47-14.127,1.886-28.116a48.979,48.979,0,0,0-3.943-24.661h.628a49.275,49.275,0,0,1,3.942,24.661c-1.4,13.979-1.886,28.116-1.886,28.116v35.812s-9.738,4.241-9.9,5.184a4.65,4.65,0,0,0-.05-.572C286.723,210.144,293.918,207.007,293.918,207.007Z" opacity="0.1"/><path d="M261.484,207.775a2.443,2.443,0,0,0-.864.178v-.158A5.666,5.666,0,0,1,261.484,207.775Z" opacity="0.1"/><path d="M272.244,204.654c1.886-1.413.328-26.7,0-32.525s3.614-30.627,3.614-30.627a2.73,2.73,0,0,1,.542.558c-.578,3.706-3.811,24.776-3.526,30.069.329,5.811,1.886,31.1,0,32.525l-1.57,5.339-.572-.191Z" opacity="0.1"/></g><path d="M263.84,79.549l-3.286,11.624s-3.456,3.285-6.282,0-4.566-12.094-4.737-13.979-2.671-11.624-3.614-11.624-10.366.628-11.466-3.285c-.881-3.147,9.639-1.643,13.851-.936a3.12,3.12,0,0,1,2.356,1.873l6.459,15.425S260.541,74.68,263.84,79.549Z" fill="#f7c4a7"/><path d="M285.044,52.533s-4.084,11.466,1.1,15.55-18.539,5.184-18.539,5.184l3.219-3.062s2.277-9.032.707-16.572Z" fill="#f7c4a7"/><path d="M280.017,68.082s4.163-1.022,4.163-2.119l3.689,2.119h9.268s6.755,3.768,1.1,15.08-3.141,39.1-3.141,39.1-20.1-3.614-36.754,1.886c0,0,2.513-12.409,1.571-19.476s1.57-16.963,1.57-16.963l1.413-5.97s-.079-5.585-5.891-2.75c0,0-.864-8.089,5.106-9.032,0,0,6.9.943,8.952-2.513C271.064,67.455,275.621,70.126,280.017,68.082Z" opacity="0.1"/><path d="M280.017,67.77s4.163-1.022,4.163-2.119l2.7,1.554a4.269,4.269,0,0,0,2.122.565h6.482a4.271,4.271,0,0,1,3.473,1.768c1.488,2.093,2.822,6.219-.723,13.313-5.654,11.308-3.141,39.1-3.141,39.1s-20.1-3.614-36.754,1.886c0,0,2.513-12.409,1.571-19.476s1.57-16.94,1.57-16.94l1.413-5.97s-.079-5.585-5.891-2.75c0,0-.841-7.865,4.859-8.989a1.61,1.61,0,0,1,.483-.033c1.219.128,6.9.539,8.72-2.54C271.064,67.14,275.621,69.811,280.017,67.77Z" fill="#e14b5a"/><path d="M295.882,82.062s-5.026,3.141-13.194,0c0,0-8.953-3.285-11.781-9.738s14.291,1.1,14.291,1.1,3.614,0,4.711-.785S298.708,78.606,295.882,82.062Z" opacity="0.1"/><path d="M295.882,81.434s-5.026,3.141-13.194,0c0,0-8.953-3.285-11.781-9.738s-9.423-13.52-9.423-13.52-11.466-4.4-10.842-8.795,13.194,4.869,13.194,4.869l5.027,4.711L285.2,72.784s3.614,0,4.711-.785S298.708,77.978,295.882,81.434Z" fill="#f7c4a7"/><path d="M271.38,54.1,284.886,53a30.987,30.987,0,0,0-1.409,6.4,8.632,8.632,0,0,1-12.091.329A15.369,15.369,0,0,0,271.38,54.1Z" opacity="0.1"/><path d="M277.428,61.564a8.637,8.637,0,1,0-8.637-8.637A8.638,8.638,0,0,0,277.428,61.564Z" fill="#f7c4a7"/><path d="M282.169,54.8c-.506-.834.522-1.922.184-2.835-.312-.841-1.554-.986-1.971-1.771-.329-.634,0-1.413-.132-2.113a2.169,2.169,0,0,0-2.083-1.511,7.428,7.428,0,0,0-2.69.595,10.333,10.333,0,0,1-4.432.683,4.646,4.646,0,0,1-3.66-2.323,1.317,1.317,0,0,1-.168-.637c.026-.493.48-.831.772-1.225.513-.687.572-1.623,1.038-2.339.953-1.459,3.046-1.423,4.787-1.429,2.563,0,5.112-.48,7.675-.394s5.257.811,6.955,2.737c2.037,2.316,2.129,5.707,2.113,8.8a5.6,5.6,0,0,1-.864,3.637c-.237.286-.526.522-.753.815-.493.657-.624,1.5-1.087,2.165-.822,1.186-2.425,1.475-3.854,1.666.421-.056.072-2.872,0-3.131C283.723,54.891,283.424,54.918,282.169,54.8Z" opacity="0.1"/><path d="M282.169,54.491c-.506-.834.522-1.922.184-2.835-.312-.841-1.554-.986-1.971-1.771-.329-.634,0-1.413-.132-2.113a2.169,2.169,0,0,0-2.083-1.511,7.428,7.428,0,0,0-2.69.595,10.333,10.333,0,0,1-4.432.683,4.646,4.646,0,0,1-3.66-2.323,1.318,1.318,0,0,1-.168-.637c.026-.493.48-.831.772-1.226.513-.687.572-1.623,1.038-2.339.953-1.459,3.046-1.423,4.787-1.429,2.563,0,5.112-.48,7.675-.394s5.257.812,6.955,2.737c2.037,2.316,2.129,5.707,2.113,8.8a5.6,5.6,0,0,1-.864,3.637c-.237.286-.526.522-.753.815-.493.657-.624,1.5-1.087,2.165-.822,1.186-2.425,1.475-3.854,1.666.421-.056.072-2.872,0-3.131C283.723,54.563,283.424,54.6,282.169,54.491Z" fill="#281c1c"/><path d="M295.8,82.456s-4.241-11-7.54-11.308,6.282,0,6.282,0l3.141,5.654Z" opacity="0.1"/><path d="M296.119,82.456s-4.242-11-7.54-11.308,6.282,0,6.282,0L298,76.8Z" fill="#e14b5a"/><path d="M284.245,209.037c.224,1.705.329,3.078.329,3.078.158-.943,9.9-5.184,9.9-5.184v-2.553a4.389,4.389,0,0,0-.743.036,14.019,14.019,0,0,0-5.257,2.149A47.815,47.815,0,0,1,284.245,209.037Z" fill="#618fd8"/><path d="M284.245,209.037c.224,1.705.329,3.078.329,3.078.158-.943,9.9-5.184,9.9-5.184v-2.553a4.389,4.389,0,0,0-.743.036,14.019,14.019,0,0,0-5.257,2.149A47.815,47.815,0,0,1,284.245,209.037Z" opacity="0.3"/><path d="M260.541,207.874c2.04-.943,10.681,2.04,10.681,2.04l.874-2.973c-1.508-.306-3.006-.687-4.478-1.14a14.875,14.875,0,0,1-2.011-.743,13.465,13.465,0,0,0-1.34-.624,6.951,6.951,0,0,0-3.457-.029C260.659,206.52,260.541,207.874,260.541,207.874Z" fill="#618fd8"/><path d="M260.541,207.874c2.04-.943,10.681,2.04,10.681,2.04l.874-2.973c-1.508-.306-3.006-.687-4.478-1.14a14.875,14.875,0,0,1-2.011-.743,13.465,13.465,0,0,0-1.34-.624,6.951,6.951,0,0,0-3.457-.029C260.659,206.52,260.541,207.874,260.541,207.874Z" opacity="0.3"/><path d="M303.186,216.827a.949.949,0,0,0,.341-.25.936.936,0,0,0,.2-.375.922.922,0,0,1-.539,1.094c-1.886.943-12.721,1.571-18.07-2.513v-.47C290.465,218.4,301.3,217.77,303.186,216.827Z" fill="#fff" opacity="0.4"/><path d="M254.338,217.454c3.286.785,15.08-.943,16.178-2.829v.47c-1.1,1.886-12.879,3.614-16.178,2.829-1.347-.329-1.777-.986-1.643-1.705C252.8,216.751,253.293,217.191,254.338,217.454Z" fill="#fff" opacity="0.4"/><path d="M273.5,103.033s-3.456-1.1-4.4,0-9,3.679-9,3.679" opacity="0.1"/><path d="M234.392,59.875H251.2v-.355H234.392Z" fill="#8ed16f"/><path d="M234.392,60.23H251.2v-.355H234.392Z" fill="#8ed16f"/><path d="M234.392,60.23H251.2v-.355H234.392Z" opacity="0.1"/><path d="M234.392,60.585H251.2V60.23H234.392Z" fill="#8ed16f"/><path d="M234.392,60.937H251.2v-.355H234.392Z" fill="#8ed16f"/><path d="M234.392,60.937H251.2v-.355H234.392Z" opacity="0.1"/><path d="M234.392,61.292H251.2v-.355H234.392Z" fill="#8ed16f"/><path d="M234.392,61.643H251.2v-.355H234.392Z" fill="#8ed16f"/><path d="M234.392,61.643H251.2v-.355H234.392Z" opacity="0.1"/><path d="M234.392,62H251.2v-.355H234.392Z" fill="#8ed16f"/><path d="M234.392,62.349H251.2v-.355H234.392Z" fill="#8ed16f"/><path d="M234.392,62.349H251.2v-.355H234.392Z" opacity="0.1"/><path d="M234.392,57.05H251.2V56.7H234.392Z" fill="#8ed16f"/><path d="M246.279,48.649,259.2,59.4l.227-.273-12.92-10.746Z" fill="#8ed16f"/><path d="M234.5,43,247.42,53.742l.227-.273L234.726,42.723Z" fill="#8ed16f"/><path d="M234.392,57.4H251.2v-.355H234.392Z" fill="#8ed16f"/><path d="M234.392,57.4H251.2v-.355H234.392Z" opacity="0.1"/><path d="M234.392,57.76H251.2V57.4H234.392Z" fill="#8ed16f"/><path d="M234.392,58.111H251.2v-.355H234.392Z" fill="#8ed16f"/><path d="M234.392,58.111H251.2v-.355H234.392Z" opacity="0.1"/><path d="M234.392,58.463H251.2v-.355H234.392Z" fill="#8ed16f"/><path d="M234.392,58.818H251.2v-.355H234.392Z" fill="#8ed16f"/><path d="M234.392,58.818H251.2v-.355H234.392Z" opacity="0.1"/><path d="M234.392,59.169H251.2v-.355H234.392Z" fill="#8ed16f"/><path d="M234.392,59.524H251.2v-.355H234.392Z" fill="#8ed16f"/><path d="M234.392,59.524H251.2v-.355H234.392Z" opacity="0.1"/><path d="M232.262,73.3l6.021,1.118,2.18-11.735-6.021-1.118Z" fill="#8ed16f"/><path d="M237.68,68.259c.254-1.365-.093-2.574-.775-2.7s-1.439.877-1.693,2.242.094,2.574.775,2.7S237.427,69.623,237.68,68.259Z" fill="#8ed16f"/><path d="M237.68,68.259c.254-1.365-.093-2.574-.775-2.7s-1.439.877-1.693,2.242.094,2.574.775,2.7S237.427,69.623,237.68,68.259Z" opacity="0.1"/><path d="M233.293,98.071l6.021,1.118,2.179-11.735-6.021-1.118Z" fill="#8ed16f"/><path d="M238.707,93.026c.254-1.365-.093-2.574-.775-2.7s-1.439.877-1.693,2.242.094,2.574.775,2.7S238.454,94.391,238.707,93.026Z" fill="#8ed16f"/><path d="M238.707,93.026c.254-1.365-.093-2.574-.775-2.7s-1.439.877-1.693,2.242.094,2.574.775,2.7S238.454,94.391,238.707,93.026Z" opacity="0.1"/><path d="M211.515,37.187,208.6,42.573l10.5,5.681,2.914-5.386Z" fill="#8ed16f"/><path d="M218.54,44.157c.333-.61-.388-1.644-1.609-2.311s-2.482-.712-2.814-.1.388,1.645,1.609,2.311S218.208,44.767,218.54,44.157Z" fill="#8ed16f"/><path d="M218.54,44.157c.333-.61-.388-1.644-1.609-2.311s-2.482-.712-2.814-.1.388,1.645,1.609,2.311S218.208,44.767,218.54,44.157Z" opacity="0.1"/><path d="M188.465,143.478l-2.914,5.386,10.5,5.68,2.915-5.386Z" fill="#8ed16f"/><path d="M194.433,150.279c.33-.609-.392-1.639-1.613-2.3s-2.478-.7-2.808-.092.393,1.639,1.613,2.3S194.1,150.889,194.433,150.279Z" fill="#8ed16f"/><path d="M194.433,150.279c.33-.609-.392-1.639-1.613-2.3s-2.478-.7-2.808-.092.393,1.639,1.613,2.3S194.1,150.889,194.433,150.279Z" opacity="0.1"/><path d="M174.363,55.763l-2.915,5.386,10.5,5.681,2.915-5.386Z" fill="#8ed16f"/><path d="M180.328,62.559c.329-.61-.393-1.639-1.614-2.3s-2.477-.7-2.807-.092.392,1.639,1.613,2.3S180,63.169,180.328,62.559Z" fill="#8ed16f"/><path d="M180.328,62.559c.329-.61-.393-1.639-1.614-2.3s-2.477-.7-2.807-.092.392,1.639,1.613,2.3S180,63.169,180.328,62.559Z" opacity="0.1"/><path d="M192.038,37.185l-2.915,5.386,10.5,5.681,2.914-5.386Z" fill="#8ed16f"/><path d="M198,43.982c.33-.61-.392-1.639-1.613-2.3s-2.478-.7-2.808-.092.392,1.639,1.613,2.3S197.673,44.591,198,43.982Z" fill="#8ed16f"/><path d="M198,43.982c.33-.61-.392-1.639-1.613-2.3s-2.478-.7-2.808-.092.392,1.639,1.613,2.3S197.673,44.591,198,43.982Z" opacity="0.1"/><path d="M209.685,59.105l-6.088.666,1.3,11.865,6.088-.666Z" fill="#8ed16f"/><path d="M207.482,67.88c.689-.075,1.126-1.255.975-2.635s-.832-2.437-1.521-2.362-1.125,1.255-.974,2.635S206.793,67.955,207.482,67.88Z" fill="#8ed16f"/><path d="M207.482,67.88c.689-.075,1.126-1.255.975-2.635s-.832-2.437-1.521-2.362-1.125,1.255-.974,2.635S206.793,67.955,207.482,67.88Z" opacity="0.1"/><path d="M251.423,124.077l-6.088.666,1.3,11.865,6.088-.666Z" fill="#8ed16f"/><path d="M249.224,132.851c.689-.075,1.125-1.255.974-2.635s-.832-2.437-1.521-2.362-1.125,1.255-.974,2.635S248.535,132.927,249.224,132.851Z" fill="#8ed16f"/><path d="M249.224,132.851c.689-.075,1.125-1.255.974-2.635s-.832-2.437-1.521-2.362-1.125,1.255-.974,2.635S248.535,132.927,249.224,132.851Z" opacity="0.1"/><path d="M185.847,84.31,182.932,89.7l10.5,5.681,2.914-5.386Z" fill="#8ed16f"/><path d="M191.81,91.111c.33-.61-.392-1.639-1.613-2.3s-2.478-.7-2.808-.092.392,1.639,1.613,2.3S191.48,91.721,191.81,91.111Z" fill="#8ed16f"/><path d="M191.81,91.111c.33-.61-.392-1.639-1.613-2.3s-2.478-.7-2.808-.092.392,1.639,1.613,2.3S191.48,91.721,191.81,91.111Z" opacity="0.1"/><path d="M159.357,76.745l-2.915,5.386,10.5,5.681,2.914-5.386Z" fill="#8ed16f"/><path d="M166.194,83.9c.333-.61-.388-1.645-1.609-2.311s-2.482-.712-2.815-.1.388,1.645,1.61,2.311S165.861,84.513,166.194,83.9Z" fill="#8ed16f"/><path d="M166.194,83.9c.333-.61-.388-1.645-1.609-2.311s-2.482-.712-2.815-.1.388,1.645,1.61,2.311S165.861,84.513,166.194,83.9Z" opacity="0.1"/><path d="M150.873,204.123l-2.915,5.386,10.5,5.68,2.914-5.386Z" fill="#8ed16f"/><path d="M156.838,210.921c.329-.61-.393-1.639-1.614-2.3s-2.477-.7-2.807-.093.392,1.64,1.613,2.3S156.508,211.53,156.838,210.921Z" fill="#8ed16f"/><path d="M156.838,210.921c.329-.61-.393-1.639-1.614-2.3s-2.477-.7-2.807-.093.392,1.64,1.613,2.3S156.508,211.53,156.838,210.921Z" opacity="0.1"/><path d="M143.235,206.2l-1.117,6.021,11.736,2.177,1.117-6.021Z" fill="#8ed16f"/><path d="M143.235,206.2l-1.117,6.021,11.736,2.177,1.117-6.021Z" opacity="0.05"/><path d="M151,210.833c.126-.682-.878-1.44-2.242-1.693s-2.574.094-2.7.776.877,1.439,2.242,1.692S150.878,211.514,151,210.833Z" fill="#8ed16f"/><path d="M151,210.833c.126-.682-.878-1.44-2.242-1.693s-2.574.094-2.7.776.877,1.439,2.242,1.692S150.878,211.514,151,210.833Z" opacity="0.1"/><path d="M144.335,209.81l-1.117,6.021,11.736,2.177,1.117-6.021Z" fill="#8ed16f"/><path d="M152.1,214.444c.127-.682-.877-1.44-2.242-1.693s-2.574.094-2.7.776.877,1.439,2.242,1.692S151.974,215.125,152.1,214.444Z" fill="#8ed16f"/><path d="M152.1,214.444c.127-.682-.877-1.44-2.242-1.693s-2.574.094-2.7.776.877,1.439,2.242,1.692S151.974,215.125,152.1,214.444Z" opacity="0.1"/><path d="M163.255,219.6l-2.914,5.386,10.5,5.681,2.915-5.386Z" fill="#8ed16f"/><path d="M169.223,226.4c.33-.609-.392-1.639-1.613-2.3s-2.478-.7-2.808-.092.393,1.639,1.614,2.3S168.893,227.011,169.223,226.4Z" fill="#8ed16f"/><path d="M169.223,226.4c.33-.609-.392-1.639-1.613-2.3s-2.478-.7-2.808-.092.393,1.639,1.614,2.3S168.893,227.011,169.223,226.4Z" opacity="0.1"/><path d="M155.62,221.675,154.5,227.7l11.736,2.177,1.117-6.021Z" fill="#8ed16f"/><path d="M155.62,221.675,154.5,227.7l11.736,2.177,1.117-6.021Z" opacity="0.05"/><path d="M163.386,226.309c.126-.682-.878-1.439-2.243-1.693s-2.573.094-2.7.776.878,1.439,2.242,1.692S163.259,226.99,163.386,226.309Z" fill="#8ed16f"/><path d="M163.386,226.309c.126-.682-.878-1.439-2.243-1.693s-2.573.094-2.7.776.878,1.439,2.242,1.692S163.259,226.99,163.386,226.309Z" opacity="0.1"/><path d="M156.719,225.29l-1.117,6.021,11.736,2.177,1.117-6.021Z" fill="#8ed16f"/><path d="M164.488,229.924c.126-.682-.878-1.44-2.243-1.693s-2.573.094-2.7.776.878,1.439,2.243,1.692S164.361,230.6,164.488,229.924Z" fill="#8ed16f"/><path d="M164.488,229.924c.126-.682-.878-1.44-2.243-1.693s-2.573.094-2.7.776.878,1.439,2.243,1.692S164.361,230.6,164.488,229.924Z" opacity="0.1"/><path d="M181.834,209.627l-2.915,5.386,10.5,5.68,2.914-5.386Z" fill="#8ed16f"/><path d="M187.8,216.423c.329-.609-.393-1.639-1.614-2.3s-2.477-.7-2.807-.092.392,1.639,1.613,2.3S187.466,217.033,187.8,216.423Z" fill="#8ed16f"/><path d="M187.8,216.423c.329-.609-.393-1.639-1.614-2.3s-2.477-.7-2.807-.092.392,1.639,1.613,2.3S187.466,217.033,187.8,216.423Z" opacity="0.1"/><path d="M174.2,211.7l-1.117,6.021,11.736,2.177,1.117-6.021Z" fill="#8ed16f"/><path d="M174.2,211.7l-1.117,6.021,11.736,2.177,1.117-6.021Z" opacity="0.05"/><path d="M181.962,216.334c.127-.681-.877-1.439-2.242-1.692s-2.574.094-2.7.776.877,1.439,2.242,1.692S181.836,217.016,181.962,216.334Z" fill="#8ed16f"/><path d="M181.962,216.334c.127-.681-.877-1.439-2.242-1.692s-2.574.094-2.7.776.877,1.439,2.242,1.692S181.836,217.016,181.962,216.334Z" opacity="0.1"/><path d="M175.3,215.315l-1.117,6.021,11.736,2.177,1.117-6.021Z" fill="#8ed16f"/><path d="M183.064,219.949c.127-.681-.877-1.439-2.242-1.692s-2.574.094-2.7.775.877,1.44,2.242,1.693S182.938,220.631,183.064,219.949Z" fill="#8ed16f"/><path d="M183.064,219.949c.127-.681-.877-1.439-2.242-1.692s-2.574.094-2.7.775.877,1.44,2.242,1.693S182.938,220.631,183.064,219.949Z" opacity="0.1"/></g></svg>